<svg width="25" height="24" viewBox="0 0 25 24" fill="none" xmlns="http://www.w3.org/2000/svg">
<path fill-rule="evenodd" clip-rule="evenodd" d="M19.2002 19L5.2002 19C3.54334 19 2.2002 17.6569 2.2002 16L2.2002 10L2.2002 8C2.2002 6.34315 3.54334 5 5.2002 5L19.2002 5C20.857 5 22.2002 6.34315 22.2002 8V16C22.2002 17.6569 20.857 19 19.2002 19ZM4.2002 9V8C4.2002 7.44772 4.64791 7 5.2002 7L19.2002 7C19.7525 7 20.2002 7.44771 20.2002 8V9H4.2002ZM4.2002 11H20.2002V16C20.2002 16.5523 19.7525 17 19.2002 17L5.2002 17C4.64791 17 4.2002 16.5523 4.2002 16L4.2002 11ZM5.2002 14C5.2002 13.4477 5.64791 13 6.2002 13H10.2002C10.7525 13 11.2002 13.4477 11.2002 14C11.2002 14.5523 10.7525 15 10.2002 15H6.2002C5.64791 15 5.2002 14.5523 5.2002 14Z" fill="#1A202C"/>
</svg>
