<svg width="25" height="24" viewBox="0 0 25 24" fill="none" xmlns="http://www.w3.org/2000/svg">
<path fill-rule="evenodd" clip-rule="evenodd" d="M19.2002 5H5.2002C3.54334 5 2.2002 6.34315 2.2002 8V16C2.2002 17.6569 3.54334 19 5.2002 19H19.2002C20.857 19 22.2002 17.6569 22.2002 16V8C22.2002 6.34315 20.857 5 19.2002 5ZM4.2002 8C4.2002 7.44772 4.64791 7 5.2002 7H19.2002C19.7525 7 20.2002 7.44772 20.2002 8V8.5H4.2002V8ZM4.2002 10.5V16C4.2002 16.5523 4.64791 17 5.2002 17H19.2002C19.7525 17 20.2002 16.5523 20.2002 16V10.5H4.2002ZM6.2002 14C6.2002 13.4477 6.64791 13 7.2002 13H10.2002C10.7525 13 11.2002 13.4477 11.2002 14C11.2002 14.5523 10.7525 15 10.2002 15H7.2002C6.64791 15 6.2002 14.5523 6.2002 14ZM13.2002 13C12.6479 13 12.2002 13.4477 12.2002 14C12.2002 14.5523 12.6479 15 13.2002 15H14.2002C14.7525 15 15.2002 14.5523 15.2002 14C15.2002 13.4477 14.7525 13 14.2002 13H13.2002Z" fill="#1A202C"/>
</svg>
