<svg width="25" height="24" viewBox="0 0 25 24" fill="none" xmlns="http://www.w3.org/2000/svg">
<path fill-rule="evenodd" clip-rule="evenodd" d="M5.2002 4C3.54334 4 2.2002 5.34315 2.2002 7V17C2.2002 18.6569 3.54334 20 5.2002 20H19.2002C20.857 20 22.2002 18.6569 22.2002 17V7C22.2002 5.34315 20.857 4 19.2002 4H5.2002ZM4.29151 6.58194C4.44981 6.23843 4.79716 6 5.2002 6H19.2002C19.6032 6 19.9506 6.23843 20.1089 6.58194L12.8141 12.2556C12.453 12.5365 11.9474 12.5365 11.5863 12.2556L4.29151 6.58194ZM4.2002 9.04464V14.865L7.81281 11.8544L4.2002 9.04464ZM4.28309 17.3993C4.43724 17.7529 4.78986 18 5.2002 18H19.2002C19.6105 18 19.9631 17.7529 20.1173 17.3993L14.9717 13.1113L14.042 13.8343C12.9587 14.6769 11.4417 14.6769 10.3584 13.8343L9.42872 13.1113L4.28309 17.3993ZM20.2002 14.865V9.04464L16.5876 11.8544L20.2002 14.865Z" fill="#1A202C"/>
</svg>
