<svg width="24" height="24" viewBox="0 0 24 24" fill="none" xmlns="http://www.w3.org/2000/svg">
<g clip-path="url(#clip0_80_8924)">
<path d="M14.1196 8.40608L14.8253 7.44054C14.8433 7.41731 14.8687 7.40091 14.8973 7.39398C14.9258 7.38705 14.9559 7.39001 14.9826 7.4024L15.0112 7.41551C15.0372 7.42654 15.0587 7.44587 15.0725 7.47046C15.0863 7.49504 15.0916 7.52351 15.0875 7.5514L14.9039 8.73031C14.8795 8.88705 14.8893 9.04723 14.9326 9.19984C14.976 9.35244 15.0518 9.49386 15.155 9.61436C15.2582 9.73487 15.3862 9.8316 15.5303 9.89793C15.6744 9.96426 15.8312 9.9986 15.9899 9.9986C16.1485 9.9986 16.3053 9.96426 16.4494 9.89793C16.5935 9.8316 16.7215 9.73487 16.8247 9.61436C16.9279 9.49386 17.0037 9.35244 17.0471 9.19984C17.0904 9.04723 17.1002 8.88705 17.0758 8.73031L16.9005 7.60028C16.8963 7.57098 16.9023 7.54111 16.9175 7.51571C16.9327 7.49031 16.9562 7.47092 16.984 7.46081L17.0365 7.44054C17.0627 7.43024 17.0916 7.42887 17.1188 7.43663C17.1459 7.44438 17.1698 7.46084 17.1866 7.48347L17.8601 8.40608C17.9539 8.53364 18.0742 8.63942 18.2127 8.71619C18.3511 8.79296 18.5046 8.83892 18.6625 8.85089C18.8203 8.86286 18.979 8.84057 19.1274 8.78556C19.2759 8.73054 19.4107 8.64408 19.5227 8.53212C19.6346 8.42016 19.7211 8.28533 19.7761 8.13686C19.8311 7.98839 19.8534 7.82978 19.8414 7.6719C19.8295 7.51402 19.7835 7.3606 19.7068 7.22212C19.63 7.08364 19.5242 6.96338 19.3966 6.86958L18.5026 6.21635C18.479 6.19919 18.4621 6.17437 18.4547 6.14612C18.4473 6.11787 18.4499 6.08792 18.4621 6.06139C18.4716 6.03874 18.4824 6.0149 18.4919 5.99106C18.5028 5.96508 18.5221 5.94352 18.5468 5.92989C18.5714 5.91626 18.6 5.91136 18.6278 5.91596L19.7209 6.08522C19.8776 6.10965 20.0378 6.09987 20.1904 6.05653C20.343 6.01318 20.4844 5.93732 20.6049 5.83414C20.7254 5.73097 20.8222 5.60293 20.8885 5.45882C20.9548 5.31471 20.9892 5.15794 20.9892 4.9993C20.9892 4.84066 20.9548 4.6839 20.8885 4.53979C20.8222 4.39568 20.7254 4.26764 20.6049 4.16447C20.4844 4.06129 20.343 3.98543 20.1904 3.94208C20.0378 3.89874 19.8776 3.88894 19.7209 3.91338L18.6278 4.08265C18.6 4.08725 18.5714 4.08234 18.5468 4.06871C18.5221 4.05508 18.5028 4.03354 18.4919 4.00755C18.4824 3.98371 18.4716 3.96106 18.4621 3.93722C18.4499 3.91069 18.4473 3.88075 18.4547 3.85249C18.4621 3.82424 18.479 3.79942 18.5026 3.78226L19.3966 3.12904C19.5246 3.03537 19.6307 2.91512 19.7078 2.77655C19.7849 2.63799 19.8311 2.48438 19.8433 2.32627C19.8554 2.16817 19.8331 2.0093 19.7781 1.8606C19.723 1.7119 19.6365 1.57687 19.5243 1.46479C19.4121 1.3527 19.277 1.26622 19.1283 1.21128C18.9795 1.15633 18.8206 1.13422 18.6625 1.14647C18.5045 1.15872 18.3509 1.20503 18.2124 1.28223C18.0739 1.35943 17.9537 1.4657 17.8601 1.59372L17.1866 2.51515C17.1696 2.53787 17.1455 2.55438 17.1182 2.56213C17.0908 2.56988 17.0617 2.56845 17.0353 2.55806L16.984 2.53779C16.9562 2.52768 16.9327 2.50829 16.9175 2.48289C16.9023 2.45748 16.8963 2.42763 16.9005 2.39833L17.0758 1.2683C17.1002 1.11156 17.0904 0.951379 17.0471 0.798774C17.0037 0.646169 16.9279 0.504752 16.8247 0.384247C16.7215 0.263742 16.5935 0.167006 16.4494 0.100678C16.3053 0.0343501 16.1485 0 15.9899 0C15.8312 0 15.6744 0.0343501 15.5303 0.100678C15.3862 0.167006 15.2582 0.263742 15.155 0.384247C15.0518 0.504752 14.976 0.646169 14.9326 0.798774C14.8893 0.951379 14.8795 1.11156 14.9039 1.2683L15.0875 2.44721C15.0917 2.47497 15.0866 2.50332 15.073 2.52789C15.0594 2.55246 15.0381 2.57185 15.0124 2.58308L14.9826 2.59621C14.9561 2.60928 14.9258 2.61261 14.897 2.60564C14.8683 2.59867 14.8429 2.58183 14.8253 2.55806L14.1196 1.59372C14.0262 1.46532 13.906 1.35868 13.7674 1.28117C13.6288 1.20365 13.4751 1.15708 13.3168 1.14468C13.1584 1.13228 12.9993 1.15434 12.8503 1.20933C12.7014 1.26432 12.5661 1.35094 12.4538 1.46323C12.3415 1.57552 12.2549 1.71081 12.1999 1.85979C12.1449 2.00876 12.1228 2.16789 12.1352 2.3262C12.1476 2.48452 12.1942 2.63826 12.2717 2.77686C12.3492 2.91545 12.4559 3.0356 12.5843 3.12904L13.5748 3.85377C13.598 3.87134 13.6146 3.89608 13.6222 3.92413C13.6297 3.95218 13.6278 3.98194 13.6166 4.00874V4.01827C13.606 4.04606 13.5864 4.06945 13.5608 4.08461C13.5353 4.09977 13.5053 4.10581 13.4759 4.10172L12.2624 3.91338C12.1057 3.88894 11.9455 3.89874 11.7929 3.94208C11.6403 3.98543 11.4989 4.06129 11.3784 4.16447C11.2579 4.26764 11.1611 4.39568 11.0948 4.53979C11.0285 4.6839 10.9941 4.84066 10.9941 4.9993C10.9941 5.15794 11.0285 5.31471 11.0948 5.45882C11.1611 5.60293 11.2579 5.73097 11.3784 5.83414C11.4989 5.93732 11.6403 6.01318 11.7929 6.05653C11.9455 6.09987 12.1057 6.10965 12.2624 6.08522L13.4759 5.89689C13.5049 5.89271 13.5344 5.89844 13.5597 5.91316C13.585 5.92787 13.6047 5.9507 13.6154 5.97795V5.98868C13.6267 6.01566 13.6287 6.0456 13.6211 6.07386C13.6136 6.10211 13.5969 6.12706 13.5736 6.14482L12.5831 6.86958C12.4551 6.96314 12.3488 7.0833 12.2716 7.22181C12.1944 7.36032 12.1481 7.51389 12.1358 7.67199C12.1236 7.83008 12.1457 7.98896 12.2006 8.1377C12.2556 8.28645 12.3421 8.42155 12.4542 8.53372C12.5662 8.64589 12.7013 8.73247 12.85 8.78754C12.9987 8.8426 13.1575 8.86482 13.3156 8.85269C13.4737 8.84057 13.6274 8.79438 13.7659 8.71728C13.9045 8.64019 14.0247 8.53403 14.1184 8.40608H14.1196ZM12.9729 8.01748C12.9351 7.98001 12.9059 7.93476 12.8873 7.88488C12.8687 7.83501 12.8613 7.78168 12.8653 7.72862C12.8694 7.67555 12.885 7.62402 12.911 7.57757C12.9369 7.53112 12.9727 7.49087 13.0158 7.45962L14.0063 6.73607C14.1617 6.62232 14.2745 6.45973 14.3266 6.27431C14.3787 6.08889 14.3671 5.89135 14.2936 5.71331C14.222 5.53196 14.0909 5.3804 13.9216 5.28355C13.7524 5.1867 13.5553 5.15035 13.3627 5.18049L12.1492 5.36882C12.0965 5.37738 12.0426 5.37439 11.9912 5.36006C11.9398 5.34573 11.8921 5.3204 11.8515 5.28582C11.8108 5.25124 11.7782 5.20825 11.7558 5.15981C11.7334 5.11137 11.7218 5.05863 11.7218 5.00526C11.7218 4.9519 11.7334 4.89916 11.7558 4.85072C11.7782 4.80228 11.8108 4.75929 11.8515 4.72471C11.8921 4.69013 11.9398 4.66479 11.9912 4.65045C12.0426 4.63612 12.0965 4.63313 12.1492 4.64169L13.3627 4.83004C13.5553 4.86018 13.7524 4.82382 13.9216 4.72698C14.0909 4.63013 14.222 4.47855 14.2936 4.2972V4.29125C14.367 4.11339 14.3786 3.91605 14.3265 3.73083C14.2744 3.54562 14.1617 3.38323 14.0063 3.26969L13.0158 2.54495C12.9722 2.51387 12.9359 2.47368 12.9095 2.42716C12.883 2.38064 12.867 2.32891 12.8626 2.27558C12.8582 2.22225 12.8654 2.1686 12.8838 2.11836C12.9023 2.06811 12.9314 2.02247 12.9692 1.98463C13.0071 1.94679 13.0527 1.91766 13.103 1.89925C13.1532 1.88084 13.2069 1.87359 13.2602 1.87802C13.3135 1.88245 13.3652 1.89845 13.4118 1.9249C13.4583 1.95135 13.4985 1.98762 13.5295 2.03118L14.2352 2.99553C14.3511 3.15512 14.5187 3.26964 14.7095 3.31962C14.9003 3.36961 15.1025 3.35196 15.2818 3.26969L15.3009 3.26135C15.4757 3.18575 15.6206 3.05427 15.7127 2.88752C15.8048 2.72077 15.839 2.52818 15.8099 2.33992L15.6263 1.16221C15.6177 1.10954 15.6207 1.05563 15.635 1.00422C15.6494 0.952812 15.6747 0.905136 15.7093 0.864486C15.7439 0.823836 15.7869 0.791191 15.8353 0.768799C15.8838 0.746408 15.9365 0.734808 15.9899 0.734808C16.0432 0.734808 16.0959 0.746408 16.1444 0.768799C16.1928 0.791191 16.2359 0.823836 16.2704 0.864486C16.305 0.905136 16.3303 0.952812 16.3447 1.00422C16.359 1.05563 16.362 1.10954 16.3534 1.16221L16.1782 2.29105C16.1489 2.48619 16.1872 2.68549 16.2867 2.8559C16.3862 3.02631 16.541 3.15758 16.7253 3.22797L16.7635 3.24227C16.9405 3.31352 17.1363 3.32372 17.3198 3.27126C17.5033 3.2188 17.664 3.10668 17.7767 2.95262L18.4502 2.03118C18.481 1.98763 18.5212 1.95155 18.5679 1.92556C18.6145 1.89957 18.6663 1.88435 18.7196 1.881C18.7993 1.8751 18.8787 1.89528 18.9459 1.93849C19.0132 1.98171 19.0645 2.0456 19.0922 2.12055C19.1199 2.1955 19.1225 2.27744 19.0996 2.35399C19.0767 2.43055 19.0295 2.49757 18.9651 2.54495L18.0711 3.19817C17.9137 3.31441 17.8003 3.48066 17.7497 3.66971C17.699 3.85875 17.714 4.05938 17.7922 4.23879C17.8005 4.25534 17.8077 4.27248 17.8136 4.29006C17.8866 4.46899 18.0179 4.61798 18.1863 4.71278C18.3547 4.80757 18.5502 4.8426 18.741 4.81216L19.8329 4.64169C19.8856 4.63313 19.9395 4.63612 19.9909 4.65045C20.0423 4.66479 20.09 4.69013 20.1306 4.72471C20.1713 4.75929 20.2039 4.80228 20.2263 4.85072C20.2487 4.89916 20.2603 4.9519 20.2603 5.00526C20.2603 5.05863 20.2487 5.11137 20.2263 5.15981C20.2039 5.20825 20.1713 5.25124 20.1306 5.28582C20.09 5.3204 20.0423 5.34573 19.9909 5.36006C19.9395 5.37439 19.8856 5.37738 19.8329 5.36882L18.741 5.19837C18.5504 5.16777 18.3549 5.20275 18.1867 5.29758C18.0185 5.39241 17.8874 5.5415 17.8148 5.72047C17.8077 5.73835 17.8005 5.75503 17.7922 5.77172C17.7141 5.95134 17.6992 6.15212 17.7498 6.34132C17.8005 6.53051 17.9137 6.69697 18.0711 6.81355L18.9651 7.46558C19.0083 7.49689 19.0441 7.53718 19.0701 7.58368C19.0962 7.63017 19.1118 7.68176 19.116 7.73489C19.1201 7.78802 19.1127 7.84143 19.0942 7.89142C19.0758 7.9414 19.0466 7.98677 19.0089 8.02441C18.9712 8.06205 18.9257 8.09106 18.8757 8.10943C18.8257 8.1278 18.7723 8.13509 18.7192 8.13081C18.666 8.12652 18.6145 8.11076 18.568 8.08461C18.5216 8.05846 18.4814 8.02253 18.4502 7.97933L17.7767 7.05791C17.664 6.90385 17.5033 6.79173 17.3198 6.73927C17.1363 6.68681 16.9405 6.69701 16.7635 6.76826L16.7253 6.78256C16.541 6.85295 16.3862 6.98422 16.2867 7.15463C16.1872 7.32503 16.1489 7.52433 16.1782 7.71948L16.3534 8.84832C16.362 8.90099 16.359 8.9549 16.3447 9.00631C16.3303 9.05772 16.305 9.10539 16.2704 9.14604C16.2359 9.18669 16.1928 9.21934 16.1444 9.24173C16.0959 9.26412 16.0432 9.27572 15.9899 9.27572C15.9365 9.27572 15.8838 9.26412 15.8353 9.24173C15.7869 9.21934 15.7439 9.18669 15.7093 9.14604C15.6747 9.10539 15.6494 9.05772 15.635 9.00631C15.6207 8.9549 15.6177 8.90099 15.6263 8.84832L15.8099 7.6706C15.839 7.48265 15.8049 7.29034 15.713 7.12381C15.6212 6.95728 15.4766 6.82595 15.3021 6.75037L15.2806 6.74083C15.1682 6.68998 15.0464 6.66359 14.923 6.66336C14.7882 6.66396 14.6555 6.69672 14.5358 6.75891C14.4162 6.82111 14.3132 6.91095 14.2352 7.02096L13.5295 7.9853C13.4984 8.02826 13.4583 8.06396 13.412 8.08992C13.3657 8.11588 13.3143 8.13149 13.2614 8.13568C13.2085 8.13987 13.1553 8.13255 13.1055 8.11421C13.0556 8.09586 13.0104 8.06692 12.9729 8.0294V8.01748Z" fill="#2D3748"/>
<path d="M22.869 18.1662C22.7486 18.0631 22.6073 17.9872 22.4549 17.9438C22.3024 17.9004 22.1424 17.8904 21.9858 17.9146L20.8927 18.0851C20.8649 18.0893 20.8366 18.0842 20.812 18.0706C20.7874 18.057 20.768 18.0357 20.7568 18.01C20.7473 17.9862 20.7365 17.9623 20.7258 17.9397C20.7141 17.9128 20.7118 17.8827 20.7194 17.8543C20.727 17.826 20.744 17.801 20.7675 17.7835L21.6603 17.1315C21.7884 17.0379 21.8946 16.9178 21.9718 16.7792C22.049 16.6407 22.0953 16.4872 22.1076 16.3291C22.1198 16.171 22.0977 16.0121 22.0428 15.8633C21.9878 15.7146 21.9013 15.5795 21.7893 15.4673C21.6772 15.3552 21.5422 15.2686 21.3935 15.2135C21.2447 15.1585 21.0859 15.1362 20.9278 15.1483C20.7697 15.1605 20.6161 15.2067 20.4775 15.2838C20.3389 15.3609 20.2187 15.467 20.125 15.595L19.4515 16.5164C19.435 16.5394 19.4112 16.5562 19.384 16.5642C19.3568 16.5722 19.3277 16.5709 19.3013 16.5605L19.2477 16.5391C19.22 16.5289 19.1966 16.5095 19.1816 16.484C19.1666 16.4586 19.1609 16.4288 19.1654 16.3996L19.3407 15.2707C19.3651 15.114 19.3553 14.9538 19.312 14.8012C19.2686 14.6486 19.1928 14.5072 19.0896 14.3867C18.9864 14.2662 18.8584 14.1694 18.7143 14.1031C18.5702 14.0368 18.4134 14.0024 18.2548 14.0024C18.0961 14.0024 17.9393 14.0368 17.7952 14.1031C17.6511 14.1694 17.5231 14.2662 17.4199 14.3867C17.3167 14.5072 17.2409 14.6486 17.1975 14.8012C17.1542 14.9538 17.1444 15.114 17.1688 15.2707L17.3512 16.4485C17.3557 16.4764 17.3507 16.505 17.3371 16.5298C17.3235 16.5547 17.3021 16.5743 17.2761 16.5855L17.2475 16.5975C17.2211 16.6104 17.1909 16.6138 17.1622 16.6071C17.1336 16.6004 17.1081 16.5839 17.0902 16.5605L16.3845 15.595C16.2907 15.4674 16.1704 15.3616 16.032 15.2848C15.8935 15.2081 15.74 15.1621 15.5822 15.1502C15.4243 15.1382 15.2657 15.1605 15.1172 15.2155C14.9687 15.2705 14.8339 15.357 14.7219 15.4689C14.61 15.5809 14.5235 15.7157 14.4685 15.8642C14.4135 16.0126 14.3912 16.1713 14.4032 16.3291C14.4152 16.487 14.4611 16.6405 14.5379 16.7789C14.6146 16.9174 14.7204 17.0377 14.848 17.1315L15.8397 17.855C15.8632 17.8729 15.88 17.8981 15.8873 17.9267C15.8947 17.9552 15.8922 17.9854 15.8803 18.0124V18.0195C15.8698 18.0473 15.8501 18.0707 15.8245 18.0859C15.799 18.101 15.769 18.1071 15.7396 18.103L14.5261 17.9146C14.3696 17.8908 14.2098 17.9011 14.0577 17.9447C13.9055 17.9884 13.7645 18.0644 13.6445 18.1676C13.5244 18.2708 13.428 18.3987 13.362 18.5425C13.2959 18.6864 13.2617 18.8428 13.2617 19.0012C13.2617 19.1595 13.2959 19.3159 13.362 19.4598C13.428 19.6036 13.5244 19.7315 13.6445 19.8347C13.7645 19.9379 13.9055 20.0139 14.0577 20.0576C14.2098 20.1012 14.3696 20.1115 14.5261 20.0877L15.7396 19.8981C15.769 19.8945 15.7987 19.9007 15.8242 19.9158C15.8497 19.9309 15.8694 19.9541 15.8803 19.9816V19.9911C15.892 20.0177 15.8944 20.0475 15.887 20.0757C15.8797 20.1038 15.863 20.1286 15.8397 20.1461L14.848 20.8708C14.7204 20.9646 14.6146 21.0849 14.5379 21.2234C14.4611 21.3618 14.4152 21.5153 14.4032 21.6732C14.3912 21.8311 14.4135 21.9897 14.4685 22.1381C14.5235 22.2866 14.61 22.4214 14.7219 22.5334C14.8339 22.6454 14.9687 22.7318 15.1172 22.7868C15.2657 22.8418 15.4243 22.8641 15.5822 22.8521C15.74 22.8402 15.8935 22.7942 16.032 22.7175C16.1704 22.6407 16.2907 22.5349 16.3845 22.4073L17.0902 21.4418C17.1081 21.4184 17.1336 21.402 17.1622 21.3952C17.1909 21.3885 17.2211 21.3919 17.2475 21.4048L17.2761 21.4168C17.3022 21.4279 17.3238 21.4474 17.3374 21.4723C17.351 21.4972 17.3559 21.5259 17.3512 21.5538L17.1688 22.7316C17.1444 22.8883 17.1542 23.0485 17.1975 23.2011C17.2409 23.3537 17.3167 23.4951 17.4199 23.6156C17.5231 23.7361 17.6511 23.8329 17.7952 23.8992C17.9393 23.9655 18.0961 23.9999 18.2548 23.9999C18.4134 23.9999 18.5702 23.9655 18.7143 23.8992C18.8584 23.8329 18.9864 23.7361 19.0896 23.6156C19.1928 23.4951 19.2686 23.3537 19.312 23.2011C19.3553 23.0485 19.3651 22.8883 19.3407 22.7316L19.1654 21.6027C19.1609 21.5736 19.1666 21.5437 19.1816 21.5183C19.1966 21.4928 19.22 21.4734 19.2477 21.4633L19.3002 21.443C19.3265 21.432 19.3558 21.4302 19.3833 21.438C19.4108 21.4458 19.4349 21.4627 19.4515 21.4859L20.125 22.4073C20.2187 22.5353 20.3389 22.6415 20.4775 22.7186C20.6161 22.7956 20.7697 22.8418 20.9278 22.854C21.0859 22.8661 21.2447 22.8439 21.3935 22.7888C21.5422 22.7337 21.6772 22.6471 21.7893 22.535C21.9013 22.4228 21.9878 22.2877 22.0428 22.139C22.0977 21.9902 22.1198 21.8313 22.1076 21.6732C22.0953 21.5151 22.049 21.3616 21.9718 21.2231C21.8946 21.0846 21.7884 20.9644 21.6603 20.8708L20.7675 20.2188C20.7438 20.2014 20.7268 20.1764 20.7194 20.1479C20.712 20.1195 20.7147 20.0893 20.727 20.0626C20.7365 20.04 20.7473 20.0162 20.7568 19.9923C20.7677 19.9663 20.787 19.9448 20.8117 19.9312C20.8363 19.9175 20.8649 19.9126 20.8927 19.9172L21.9858 20.0877C22.2221 20.1246 22.4641 20.0833 22.6749 19.9702C22.8857 19.857 23.0538 19.6782 23.1537 19.4608C23.2537 19.2434 23.2799 18.9994 23.2286 18.7657C23.1772 18.5321 23.0509 18.3216 22.869 18.1662ZM22.3922 19.2807C22.3522 19.3157 22.305 19.3413 22.2538 19.3558C22.2027 19.3702 22.149 19.373 22.0966 19.3641L21.0047 19.1949C20.8139 19.164 20.6182 19.1988 20.4497 19.2937C20.2812 19.3885 20.1499 19.5378 20.0773 19.717L20.0559 19.7682C19.9777 19.9476 19.9627 20.1483 20.0134 20.3373C20.064 20.5264 20.1774 20.6926 20.3348 20.8088L21.2276 21.4621C21.2722 21.4932 21.3092 21.534 21.3356 21.5815C21.362 21.629 21.3773 21.6819 21.3802 21.7362C21.3845 21.7891 21.3772 21.8423 21.3589 21.8921C21.3406 21.942 21.3117 21.9872 21.2741 22.0247C21.2365 22.0621 21.1912 22.091 21.1413 22.1093C21.0915 22.1277 21.0383 22.135 20.9854 22.131C20.9324 22.1269 20.881 22.1115 20.8346 22.0857C20.7881 22.06 20.7478 22.0245 20.7163 21.9818L20.0428 21.0604C19.9302 20.9058 19.7693 20.7933 19.5856 20.7406C19.4018 20.6879 19.2057 20.6981 19.0284 20.7695L18.9914 20.785C18.8069 20.8548 18.6519 20.9858 18.5523 21.1561C18.4527 21.3264 18.4146 21.5257 18.4443 21.7207L18.6195 22.8508C18.6281 22.9034 18.6251 22.9573 18.6108 23.0088C18.5964 23.0602 18.5711 23.1078 18.5365 23.1485C18.5019 23.1891 18.4589 23.2218 18.4105 23.2442C18.362 23.2666 18.3093 23.2782 18.2559 23.2782C18.2026 23.2782 18.1499 23.2666 18.1014 23.2442C18.053 23.2218 18.01 23.1891 17.9754 23.1485C17.9408 23.1078 17.9155 23.0602 17.9011 23.0088C17.8868 22.9573 17.8838 22.9034 17.8924 22.8508L18.076 21.6719C18.1051 21.4839 18.071 21.2916 17.9791 21.1251C17.8872 20.9585 17.7427 20.8272 17.5682 20.7516L17.5467 20.7421C17.4341 20.6922 17.3123 20.6662 17.1891 20.6658C17.0549 20.6658 16.9227 20.6975 16.8031 20.7584C16.6836 20.8193 16.5802 20.9077 16.5013 21.0162L15.7956 21.9818C15.7641 22.0245 15.7238 22.06 15.6773 22.0857C15.6309 22.1115 15.5795 22.1269 15.5265 22.131C15.4736 22.135 15.4204 22.1277 15.3706 22.1093C15.3207 22.091 15.2754 22.0621 15.2378 22.0247C15.2002 21.9872 15.1713 21.942 15.153 21.8921C15.1346 21.8423 15.1274 21.7891 15.1317 21.7362C15.1352 21.6832 15.1505 21.6316 15.1765 21.5852C15.2025 21.5388 15.2385 21.4988 15.2819 21.468L16.2724 20.7433C16.4276 20.6299 16.5403 20.4678 16.5924 20.2828C16.6445 20.0977 16.633 19.9006 16.5597 19.7229V19.7158C16.4883 19.5342 16.3572 19.3824 16.188 19.2853C16.0188 19.1882 15.8215 19.1517 15.6287 19.1817L14.4153 19.3701C14.3361 19.3828 14.255 19.3692 14.1843 19.3315C14.1136 19.2937 14.0571 19.2339 14.0236 19.161C13.9901 19.0882 13.9814 19.0064 13.9987 18.9281C14.016 18.8499 14.0585 18.7794 14.1197 18.7276C14.1597 18.6926 14.2069 18.6669 14.2581 18.6525C14.3092 18.6381 14.3629 18.6352 14.4153 18.6442L15.6287 18.8325C15.8211 18.8626 16.0179 18.8264 16.1869 18.7298C16.3559 18.6332 16.487 18.4819 16.5585 18.3009V18.2925C16.6319 18.1146 16.6435 17.9173 16.5914 17.7321C16.5393 17.5469 16.4266 17.3845 16.2712 17.2709L15.2807 16.5462C15.2373 16.5155 15.2013 16.4755 15.1753 16.4291C15.1493 16.3827 15.134 16.3311 15.1305 16.278C15.1264 16.2251 15.1338 16.1719 15.1521 16.1221C15.1705 16.0723 15.1994 16.0271 15.2369 15.9895C15.2744 15.9519 15.3195 15.9229 15.3692 15.9044C15.419 15.8859 15.4721 15.8783 15.525 15.8823C15.5783 15.8856 15.6302 15.9008 15.6768 15.9268C15.7234 15.9528 15.7636 15.9889 15.7944 16.0324L16.5001 16.998C16.6158 17.1572 16.7829 17.2715 16.9733 17.3215C17.1636 17.3714 17.3654 17.354 17.5443 17.2721L17.5658 17.2626C17.7405 17.1872 17.8853 17.056 17.9774 16.8894C18.0696 16.7229 18.1038 16.5305 18.0748 16.3424L17.8912 15.1635C17.8826 15.1108 17.8856 15.0569 17.8999 15.0055C17.9143 14.9541 17.9396 14.9064 17.9742 14.8657C18.0088 14.8251 18.0518 14.7924 18.1002 14.77C18.1487 14.7477 18.2014 14.7361 18.2548 14.7361C18.3081 14.7361 18.3608 14.7477 18.4093 14.77C18.4577 14.7924 18.5007 14.8251 18.5353 14.8657C18.5699 14.9064 18.5952 14.9541 18.6096 15.0055C18.6239 15.0569 18.6269 15.1108 18.6183 15.1635L18.4431 16.2935C18.4134 16.4885 18.4516 16.6878 18.5511 16.8581C18.6507 17.0284 18.8057 17.1594 18.9902 17.2292L19.0272 17.2447C19.2045 17.3161 19.4006 17.3263 19.5844 17.2736C19.7681 17.2209 19.929 17.1084 20.0416 16.9539L20.7151 16.0324C20.7463 15.9894 20.7866 15.9536 20.833 15.9276C20.8795 15.9016 20.931 15.8861 20.9841 15.882C21.0371 15.8779 21.0904 15.8854 21.1403 15.904C21.1902 15.9225 21.2355 15.9517 21.2729 15.9895C21.3105 16.027 21.3394 16.0723 21.3577 16.1221C21.376 16.1719 21.3833 16.2251 21.379 16.278C21.3755 16.3311 21.3602 16.3827 21.3342 16.4291C21.3082 16.4755 21.2722 16.5155 21.2288 16.5462L20.336 17.1994C20.1785 17.3157 20.0652 17.4819 20.0145 17.671C19.9639 17.86 19.9789 18.0606 20.0571 18.2401L20.0785 18.2913C20.1511 18.4705 20.2824 18.6198 20.4509 18.7146C20.6194 18.8095 20.8151 18.8443 21.0059 18.8134L22.0954 18.637C22.1746 18.6243 22.2557 18.6379 22.3264 18.6756C22.3972 18.7134 22.4536 18.7732 22.4871 18.846C22.5206 18.9189 22.5294 19.0007 22.512 19.0789C22.4947 19.1572 22.4522 19.2276 22.391 19.2795L22.3922 19.2807Z" fill="#2D3748"/>
<path d="M7.49934 15.359C7.51062 15.3331 7.53019 15.3116 7.55501 15.298C7.57983 15.2844 7.60847 15.2795 7.63641 15.2839L8.72831 15.4544C8.88482 15.4782 9.04462 15.468 9.19679 15.4243C9.34896 15.3806 9.48991 15.3046 9.60998 15.2014C9.73005 15.0983 9.82641 14.9704 9.89247 14.8265C9.95854 14.6826 9.99273 14.5262 9.99273 14.3679C9.99273 14.2096 9.95854 14.0531 9.89247 13.9093C9.82641 13.7654 9.73005 13.6375 9.60998 13.5343C9.48991 13.4312 9.34896 13.3551 9.19679 13.3115C9.04462 13.2678 8.88482 13.2575 8.72831 13.2814L7.63641 13.4518C7.60847 13.4563 7.57983 13.4513 7.55501 13.4377C7.53019 13.4241 7.51062 13.4027 7.49934 13.3767C7.4898 13.3529 7.48027 13.329 7.46954 13.3064C7.45749 13.2797 7.45492 13.2496 7.46229 13.2212C7.46966 13.1928 7.48651 13.1678 7.51005 13.1502L8.40406 12.4982C8.53162 12.4044 8.63742 12.2842 8.7142 12.1457C8.79097 12.0072 8.83691 11.8538 8.84888 11.6959C8.86085 11.538 8.83856 11.3794 8.78355 11.2309C8.72853 11.0824 8.64209 10.9476 8.53013 10.8356C8.41817 10.7237 8.28334 10.6372 8.13487 10.5822C7.98639 10.5272 7.82779 10.5049 7.6699 10.5169C7.51202 10.5289 7.35859 10.5748 7.22011 10.6516C7.08163 10.7284 6.96137 10.8341 6.86757 10.9617L6.19409 11.8831C6.17743 11.9063 6.15337 11.9232 6.12587 11.931C6.09838 11.9388 6.06907 11.9371 6.0427 11.926L5.99142 11.9058C5.9636 11.8957 5.94012 11.8763 5.92493 11.8509C5.90973 11.8255 5.90374 11.7956 5.90799 11.7663L6.0844 10.6375C6.10823 10.481 6.09797 10.3212 6.05431 10.169C6.01065 10.0168 5.93463 9.87588 5.83145 9.75581C5.72827 9.63574 5.60037 9.53938 5.4565 9.47332C5.31263 9.40726 5.1562 9.37305 4.99789 9.37305C4.83957 9.37305 4.68314 9.40726 4.53927 9.47332C4.3954 9.53938 4.2675 9.63574 4.16432 9.75581C4.06114 9.87588 3.98515 10.0168 3.94149 10.169C3.89783 10.3212 3.88754 10.481 3.91137 10.6375L4.09494 11.8152C4.09902 11.8434 4.09363 11.8721 4.0796 11.897C4.06558 11.9218 4.04374 11.9412 4.01747 11.9523L3.99006 11.9642C3.96382 11.9773 3.93379 11.9808 3.90525 11.974C3.87671 11.9673 3.85147 11.9507 3.8339 11.9272L3.1282 10.9617C3.03454 10.8338 2.91432 10.7276 2.77575 10.6505C2.63718 10.5734 2.48356 10.5272 2.32546 10.5151C2.16735 10.503 2.0085 10.5252 1.8598 10.5803C1.71109 10.6353 1.57607 10.7219 1.46398 10.8341C1.3519 10.9462 1.26539 11.0813 1.21045 11.2301C1.1555 11.3788 1.13342 11.5377 1.14567 11.6958C1.15792 11.8539 1.20423 12.0075 1.28143 12.146C1.35863 12.2845 1.46488 12.4046 1.59291 12.4982L2.58467 13.2218C2.60744 13.2396 2.62371 13.2644 2.63103 13.2924C2.63835 13.3204 2.63629 13.35 2.62518 13.3767V13.3863C2.61473 13.4139 2.59534 13.4373 2.57006 13.4526C2.54478 13.468 2.51508 13.4744 2.48572 13.4709L1.27226 13.2814C1.11575 13.2575 0.95595 13.2678 0.803778 13.3115C0.651607 13.3551 0.51066 13.4312 0.39059 13.5343C0.270519 13.6375 0.174159 13.7654 0.108098 13.9093C0.0420358 14.0531 0.0078125 14.2096 0.0078125 14.3679C0.0078125 14.5262 0.0420358 14.6826 0.108098 14.8265C0.174159 14.9704 0.270519 15.0983 0.39059 15.2014C0.51066 15.3046 0.651607 15.3806 0.803778 15.4243C0.95595 15.468 1.11575 15.4782 1.27226 15.4544L2.48453 15.2649C2.51405 15.2613 2.54394 15.2677 2.56942 15.283C2.5949 15.2983 2.61451 15.3218 2.62518 15.3495V15.3579C2.63638 15.3847 2.63849 15.4145 2.63117 15.4427C2.62386 15.4709 2.60753 15.496 2.58467 15.514L1.59291 16.2376C1.46534 16.3314 1.35957 16.4516 1.2828 16.5901C1.20602 16.7286 1.16008 16.882 1.14811 17.0399C1.13614 17.1978 1.1584 17.3564 1.21342 17.5049C1.26843 17.6533 1.3549 17.7882 1.46687 17.9001C1.57883 18.0121 1.71366 18.0985 1.86213 18.1535C2.0106 18.2086 2.1692 18.2308 2.32709 18.2189C2.48497 18.2069 2.63841 18.161 2.77689 18.0842C2.91537 18.0074 3.0356 17.9016 3.1294 17.7741L3.83509 16.8085C3.85259 16.7853 3.87755 16.7689 3.90578 16.7619C3.93401 16.755 3.96378 16.7579 3.99006 16.7704L4.01986 16.7835C4.04578 16.7949 4.06723 16.8145 4.081 16.8392C4.09477 16.864 4.10009 16.8925 4.09613 16.9206L3.91256 18.0983C3.88874 18.2548 3.89902 18.4146 3.94268 18.5668C3.98634 18.7189 4.06234 18.8599 4.16551 18.98C4.26869 19.1 4.39659 19.1964 4.54046 19.2625C4.68433 19.3285 4.84077 19.3627 4.99908 19.3627C5.15739 19.3627 5.31383 19.3285 5.4577 19.2625C5.60156 19.1964 5.72947 19.1 5.83264 18.98C5.93582 18.8599 6.01185 18.7189 6.05551 18.5668C6.09916 18.4146 6.10942 18.2548 6.0856 18.0983L5.90918 16.9695C5.90493 16.9402 5.91092 16.9103 5.92612 16.8849C5.94132 16.8595 5.96479 16.8401 5.99262 16.83L6.04509 16.8097C6.07128 16.7988 6.10039 16.7971 6.12768 16.8049C6.15497 16.8127 6.17882 16.8295 6.19528 16.8526L6.86876 17.7741C6.96256 17.9016 7.08282 18.0074 7.2213 18.0842C7.35978 18.161 7.51321 18.2069 7.6711 18.2189C7.82898 18.2308 7.98759 18.2086 8.13606 18.1535C8.28453 18.0985 8.41936 18.0121 8.53132 17.9001C8.64328 17.7882 8.72972 17.6533 8.78474 17.5049C8.83976 17.3564 8.86204 17.1978 8.85007 17.0399C8.8381 16.882 8.79216 16.7286 8.71539 16.5901C8.63862 16.4516 8.53281 16.3314 8.40525 16.2376L7.51124 15.5855C7.4878 15.5682 7.471 15.5434 7.46363 15.5152C7.45626 15.487 7.45877 15.4571 7.47073 15.4306C7.48027 15.4067 7.4898 15.3829 7.49934 15.359ZM7.07855 16.1756L7.97256 16.8288C8.01528 16.8602 8.05069 16.9004 8.07643 16.9468C8.10217 16.9931 8.11761 17.0444 8.12168 17.0973C8.12576 17.1501 8.11839 17.2032 8.10006 17.253C8.08173 17.3027 8.05286 17.3479 8.01546 17.3855C7.97809 17.4232 7.93297 17.4524 7.88319 17.471C7.83341 17.4895 7.78018 17.497 7.72721 17.493C7.67423 17.4889 7.62278 17.4733 7.57643 17.4473C7.53008 17.4214 7.48994 17.3856 7.4588 17.3426L6.78532 16.4211C6.67278 16.2666 6.51187 16.1541 6.3281 16.1014C6.14434 16.0487 5.94825 16.0589 5.77092 16.1303L5.73277 16.1458C5.54838 16.2157 5.39352 16.3468 5.29397 16.517C5.19442 16.6873 5.15617 16.8865 5.18562 17.0815L5.36087 18.2115C5.37357 18.2907 5.36 18.3718 5.32225 18.4425C5.28451 18.5133 5.22463 18.5697 5.1518 18.6032C5.07898 18.6367 4.9972 18.6455 4.91893 18.6281C4.84066 18.6108 4.77022 18.5683 4.71836 18.5072C4.68336 18.4672 4.65771 18.4199 4.64328 18.3688C4.62884 18.3176 4.626 18.2639 4.63493 18.2115L4.81731 17.0326C4.84654 16.8445 4.8124 16.652 4.72025 16.4854C4.62811 16.3188 4.4832 16.1876 4.30832 16.1124L4.28806 16.1029C4.17552 16.0527 4.05369 16.0267 3.93046 16.0266C3.79609 16.0264 3.66358 16.058 3.54381 16.1189C3.42404 16.1799 3.32043 16.2683 3.24147 16.377L2.53578 17.3426C2.5047 17.3861 2.46452 17.4224 2.418 17.4489C2.37148 17.4753 2.31974 17.4913 2.26641 17.4957C2.21308 17.5002 2.15945 17.4929 2.1092 17.4745C2.05896 17.4561 2.01332 17.4269 1.97548 17.3891C1.93764 17.3513 1.90851 17.3056 1.89009 17.2554C1.87168 17.2052 1.86442 17.1515 1.86885 17.0982C1.87328 17.0448 1.88928 16.9931 1.91573 16.9466C1.94219 16.9001 1.97848 16.8599 2.02204 16.8288L3.01378 16.1041C3.1685 15.9903 3.2808 15.8281 3.33285 15.6433C3.38489 15.4584 3.37372 15.2615 3.30107 15.0837V15.0765C3.22988 14.8948 3.09881 14.7429 2.92953 14.6458C2.76025 14.5487 2.56289 14.5122 2.3701 14.5425L1.15664 14.7309C1.10426 14.7398 1.05054 14.7369 0.999401 14.7225C0.948265 14.7081 0.901003 14.6824 0.861022 14.6474C0.799886 14.5956 0.757388 14.5251 0.740045 14.4468C0.722703 14.3686 0.731448 14.2868 0.764956 14.214C0.798465 14.1411 0.854906 14.0813 0.925628 14.0435C0.99635 14.0058 1.07748 13.9922 1.15664 14.0049L2.3701 14.1933C2.56289 14.2235 2.76025 14.1871 2.92953 14.09C3.09881 13.9929 3.22988 13.8409 3.30107 13.6592C3.37435 13.4815 3.38598 13.2843 3.33413 13.0991C3.28228 12.914 3.16992 12.7515 3.01497 12.6377L2.02324 11.9129C1.97967 11.8819 1.94338 11.8417 1.91693 11.7951C1.89047 11.7486 1.87447 11.6969 1.87004 11.6436C1.86561 11.5902 1.87287 11.5366 1.89129 11.4863C1.9097 11.4361 1.93883 11.3905 1.97667 11.3526C2.01451 11.3148 2.06015 11.2856 2.1104 11.2672C2.16064 11.2488 2.21427 11.2416 2.2676 11.246C2.32093 11.2504 2.37268 11.2664 2.4192 11.2929C2.46571 11.3193 2.50589 11.3556 2.53697 11.3992L3.24266 12.3647C3.35851 12.524 3.52587 12.6384 3.71641 12.6883C3.90695 12.7383 4.10894 12.7208 4.28806 12.6389L4.30832 12.6293C4.4832 12.5541 4.62811 12.4229 4.72025 12.2563C4.8124 12.0897 4.84654 11.8972 4.81731 11.7091L4.63493 10.5302C4.626 10.4778 4.62884 10.4241 4.64328 10.373C4.65771 10.3218 4.68336 10.2746 4.71836 10.2346C4.77022 10.1734 4.84066 10.131 4.91893 10.1136C4.9972 10.0963 5.07898 10.105 5.1518 10.1385C5.22463 10.172 5.28451 10.2285 5.32225 10.2992C5.36 10.3699 5.37357 10.451 5.36087 10.5302L5.18562 11.6602C5.15641 11.8555 5.19487 12.0549 5.29461 12.2254C5.39435 12.3958 5.54938 12.527 5.73396 12.5971L5.77092 12.6114C5.94825 12.6829 6.14434 12.693 6.3281 12.6404C6.51187 12.5877 6.67278 12.4751 6.78532 12.3206L7.4588 11.3992C7.48994 11.3561 7.53008 11.3204 7.57643 11.2944C7.62278 11.2684 7.67423 11.2528 7.72721 11.2488C7.78018 11.2447 7.83341 11.2522 7.88319 11.2708C7.93297 11.2893 7.97809 11.3185 8.01546 11.3563C8.05286 11.3938 8.08173 11.439 8.10006 11.4888C8.11839 11.5385 8.12576 11.5916 8.12168 11.6444C8.11761 11.6973 8.10217 11.7486 8.07643 11.795C8.05069 11.8413 8.01528 11.8815 7.97256 11.9129L7.07617 12.5578C6.91882 12.6744 6.80568 12.8409 6.75523 13.0302C6.70478 13.2194 6.72 13.4202 6.79842 13.5996L6.8199 13.6497C6.89226 13.8288 7.02331 13.978 7.19159 14.0729C7.35986 14.1677 7.55539 14.2026 7.74609 14.1718L8.83916 14.0025C8.89144 13.9946 8.94481 13.998 8.99564 14.0126C9.04647 14.0272 9.09354 14.0526 9.13364 14.0871C9.17375 14.1215 9.20593 14.1643 9.22799 14.2123C9.25006 14.2604 9.26149 14.3126 9.26149 14.3655C9.26149 14.4184 9.25006 14.4706 9.22799 14.5187C9.20593 14.5668 9.17375 14.6095 9.13364 14.6439C9.09354 14.6784 9.04647 14.7038 8.99564 14.7184C8.94481 14.733 8.89144 14.7364 8.83916 14.7285L7.74609 14.5592C7.55539 14.5284 7.35986 14.5633 7.19159 14.6581C7.02331 14.753 6.89226 14.9022 6.8199 15.0813L6.79842 15.1326C6.71947 15.3121 6.70397 15.5132 6.75445 15.7028C6.80492 15.8923 6.91838 16.059 7.07617 16.1756H7.07855Z" fill="#2D3748"/>
<path d="M10.1828 20.958C10.0738 20.9578 9.96719 20.9899 9.87647 21.0502C9.78575 21.1106 9.715 21.1965 9.67313 21.2971C9.63127 21.3978 9.62018 21.5085 9.64129 21.6154C9.66241 21.7223 9.71475 21.8206 9.79172 21.8977C9.86869 21.9748 9.96683 22.0274 10.0737 22.0488C10.1806 22.0701 10.2913 22.0593 10.392 22.0176C10.4927 21.976 10.5788 21.9054 10.6394 21.8148C10.6999 21.7242 10.7323 21.6177 10.7323 21.5087C10.7323 21.3629 10.6744 21.223 10.5714 21.1197C10.4684 21.0165 10.3286 20.9583 10.1828 20.958Z" fill="#2D3748"/>
<path d="M1.87026 20.4087C1.76124 20.4085 1.6546 20.4406 1.56385 20.501C1.4731 20.5614 1.40234 20.6474 1.36051 20.7481C1.31869 20.8488 1.30767 20.9596 1.32888 21.0666C1.35009 21.1735 1.40257 21.2717 1.47966 21.3488C1.55675 21.4259 1.65498 21.4784 1.76192 21.4996C1.86886 21.5208 1.97967 21.5098 2.08035 21.4679C2.18103 21.4261 2.26703 21.3554 2.32746 21.2646C2.38788 21.1739 2.42 21.0672 2.41977 20.9582C2.41945 20.8126 2.36147 20.673 2.25848 20.57C2.1555 20.467 2.01591 20.409 1.87026 20.4087Z" fill="#2D3748"/>
<path d="M4.99798 22.5122C4.88901 22.5122 4.78247 22.5445 4.69188 22.6051C4.60129 22.6657 4.53072 22.7518 4.48907 22.8525C4.44743 22.9532 4.43659 23.0639 4.45793 23.1708C4.47928 23.2777 4.53184 23.3758 4.60897 23.4528C4.68611 23.5297 4.78436 23.5821 4.89126 23.6032C4.99817 23.6243 5.10894 23.6132 5.20955 23.5714C5.31016 23.5295 5.39608 23.4587 5.45645 23.368C5.51682 23.2773 5.54891 23.1707 5.54867 23.0617C5.54867 22.9895 5.53443 22.9179 5.50674 22.8512C5.47905 22.7844 5.43846 22.7238 5.3873 22.6727C5.33615 22.6217 5.27542 22.5812 5.20862 22.5537C5.14181 22.5261 5.07024 22.5121 4.99798 22.5122Z" fill="#2D3748"/>
<path d="M12.6034 13.8179C12.4945 13.8179 12.3879 13.8502 12.2974 13.9108C12.2068 13.9713 12.1362 14.0574 12.0945 14.1581C12.0529 14.2588 12.0421 14.3696 12.0634 14.4765C12.0847 14.5833 12.1373 14.6814 12.2144 14.7584C12.2916 14.8354 12.3898 14.8877 12.4967 14.9089C12.6036 14.93 12.7144 14.9189 12.815 14.877C12.9156 14.8352 13.0015 14.7644 13.0619 14.6737C13.1223 14.583 13.1544 14.4764 13.1541 14.3674C13.1541 14.2951 13.1399 14.2236 13.1122 14.1568C13.0845 14.0901 13.0439 14.0295 12.9928 13.9784C12.9416 13.9274 12.8809 13.8869 12.8141 13.8594C12.7473 13.8318 12.6757 13.8177 12.6034 13.8179Z" fill="#2D3748"/>
<path d="M10.1828 8.39893C10.0737 8.39869 9.9671 8.43082 9.87635 8.49124C9.7856 8.55166 9.71484 8.63766 9.67301 8.73834C9.63119 8.83902 9.62017 8.94985 9.64138 9.05679C9.66259 9.16373 9.71507 9.26196 9.79216 9.33905C9.86925 9.41614 9.96748 9.46861 10.0744 9.48983C10.1814 9.51104 10.2922 9.50002 10.3928 9.45819C10.4935 9.41636 10.5795 9.3456 10.64 9.25486C10.7004 9.16411 10.7325 9.05746 10.7323 8.94844C10.7319 8.8028 10.674 8.66321 10.571 8.56022C10.468 8.45724 10.3284 8.39924 10.1828 8.39893Z" fill="#2D3748"/>
<path d="M2.41864 5.54873C2.52733 5.54873 2.63358 5.51651 2.72395 5.45613C2.81432 5.39575 2.88473 5.30992 2.92632 5.20951C2.96792 5.1091 2.97881 4.99862 2.95761 4.89202C2.93641 4.78543 2.88406 4.6875 2.80721 4.61065C2.73036 4.5338 2.63245 4.48147 2.52585 4.46027C2.41926 4.43906 2.30876 4.44994 2.20835 4.49154C2.10794 4.53313 2.02213 4.60356 1.96174 4.69392C1.90136 4.78429 1.86914 4.89053 1.86914 4.99922C1.86898 5.07143 1.88308 5.14296 1.91064 5.2097C1.9382 5.27644 1.97867 5.33708 2.02973 5.38813C2.08078 5.43919 2.14144 5.47967 2.20818 5.50723C2.27492 5.53479 2.34644 5.54889 2.41864 5.54873Z" fill="#2D3748"/>
<path d="M7.13349 2.68789C7.24218 2.68789 7.34843 2.65567 7.4388 2.59529C7.52917 2.53491 7.59959 2.44908 7.64118 2.34867C7.68277 2.24826 7.69367 2.13778 7.67246 2.03118C7.65126 1.92459 7.59891 1.82666 7.52206 1.74981C7.44521 1.67296 7.3473 1.62063 7.2407 1.59943C7.13411 1.57822 7.02361 1.5891 6.9232 1.6307C6.82279 1.67229 6.73697 1.74272 6.67659 1.83309C6.61621 1.92345 6.58398 2.02969 6.58398 2.13838C6.58398 2.28412 6.64186 2.42389 6.74492 2.52695C6.84797 2.63 6.98775 2.68789 7.13349 2.68789Z" fill="#2D3748"/>
<path d="M2.41864 1.84752C2.52761 1.84775 2.63422 1.81565 2.72494 1.75528C2.81566 1.69491 2.88644 1.60898 2.92831 1.50838C2.97017 1.40777 2.98123 1.29701 2.96011 1.1901C2.939 1.0832 2.88666 0.984953 2.80969 0.907816C2.73272 0.830678 2.63458 0.778109 2.52772 0.756763C2.42086 0.735417 2.31007 0.746255 2.20937 0.787902C2.10867 0.829548 2.0226 0.900138 1.96204 0.990727C1.90147 1.08132 1.86914 1.18784 1.86914 1.29681C1.86899 1.36907 1.88307 1.44065 1.91061 1.50746C1.93816 1.57427 1.97862 1.63499 2.02967 1.68615C2.08071 1.7373 2.14134 1.77787 2.20809 1.80556C2.27484 1.83326 2.34638 1.84752 2.41864 1.84752Z" fill="#2D3748"/>
<path d="M20.0695 10.709C19.9605 10.7087 19.8539 10.7409 19.7632 10.8012C19.6725 10.8616 19.6017 10.9475 19.5598 11.0481C19.518 11.1487 19.5069 11.2595 19.528 11.3664C19.5491 11.4733 19.6015 11.5715 19.6785 11.6487C19.7554 11.7258 19.8535 11.7784 19.9604 11.7997C20.0673 11.8211 20.1781 11.8102 20.2787 11.7686C20.3794 11.727 20.4655 11.6564 20.5261 11.5658C20.5867 11.4752 20.619 11.3687 20.619 11.2597C20.619 11.1138 20.5611 10.9739 20.4581 10.8707C20.3551 10.7675 20.2153 10.7093 20.0695 10.709Z" fill="#2D3748"/>
<path d="M22.3339 8.3856C22.4429 8.3856 22.5494 8.35328 22.64 8.29271C22.7306 8.23214 22.8012 8.14606 22.8428 8.04536C22.8845 7.94466 22.8953 7.83387 22.874 7.72701C22.8526 7.62015 22.8 7.52203 22.7229 7.44506C22.6458 7.36809 22.5476 7.31573 22.4406 7.29462C22.3337 7.2735 22.223 7.28458 22.1224 7.32644C22.0218 7.36831 21.9358 7.43908 21.8755 7.5298C21.8151 7.62052 21.783 7.72712 21.7832 7.83609C21.7835 7.98194 21.8417 8.12171 21.945 8.22473C22.0482 8.32775 22.1881 8.3856 22.3339 8.3856Z" fill="#2D3748"/>
<path d="M23.4382 2.13852C23.5472 2.13875 23.6539 2.10663 23.7446 2.04621C23.8354 1.98579 23.9061 1.8998 23.9479 1.79912C23.9898 1.69844 24.0008 1.58761 23.9796 1.48067C23.9584 1.37373 23.9059 1.27549 23.8288 1.1984C23.7517 1.12131 23.6535 1.06885 23.5465 1.04763C23.4396 1.02642 23.3288 1.03742 23.2281 1.07925C23.1274 1.12108 23.0414 1.19186 22.981 1.2826C22.9206 1.37335 22.8884 1.47998 22.8887 1.589C22.889 1.73465 22.947 1.87424 23.05 1.97722C23.153 2.08021 23.2926 2.1382 23.4382 2.13852Z" fill="#2D3748"/>
<path d="M23.4394 12.3789C23.3304 12.3789 23.2239 12.4112 23.1333 12.4718C23.0427 12.5324 22.9721 12.6185 22.9305 12.7192C22.8888 12.8198 22.878 12.9306 22.8993 13.0375C22.9207 13.1444 22.9733 13.2425 23.0504 13.3194C23.1275 13.3964 23.2258 13.4488 23.3327 13.4699C23.4396 13.491 23.5504 13.4799 23.651 13.4381C23.7516 13.3962 23.8375 13.3254 23.8979 13.2347C23.9582 13.144 23.9903 13.0374 23.9901 12.9284C23.9901 12.8562 23.9758 12.7846 23.9482 12.7179C23.9205 12.6511 23.8799 12.5905 23.8287 12.5394C23.7776 12.4884 23.7169 12.4479 23.6501 12.4204C23.5832 12.3928 23.5117 12.3788 23.4394 12.3789Z" fill="#2D3748"/>
</g>
<defs>
<clipPath id="clip0_80_8924">
<rect width="23.9893" height="24" fill="white"/>
</clipPath>
</defs>
</svg>
