<svg width="23" height="24" viewBox="0 0 23 24" fill="none" xmlns="http://www.w3.org/2000/svg">
<g clip-path="url(#clip0_80_8994)">
<path d="M21.7999 18.1182C21.7982 17.4357 21.5792 16.7714 21.1745 16.2219C20.7698 15.6723 20.2004 15.266 19.5491 15.0619L13.8794 13.2414L13.693 11.071C14.0377 10.6497 14.5803 9.848 14.6633 9.1918L14.7182 8.76666C14.7583 8.44818 14.8626 8.14115 15.0246 7.86407C15.307 7.37963 15.4559 6.82897 15.4561 6.26824V4.22557C15.4565 3.83702 15.4028 3.45031 15.2965 3.07658C15.2973 3.06979 15.2973 3.06294 15.2965 3.05615L15.2889 3.02934C15.0842 2.33149 14.7028 1.69831 14.1816 1.19113C13.6604 0.683951 13.0171 0.31996 12.3139 0.134407C11.6107 -0.0511456 10.8715 -0.0519751 10.1679 0.132007C9.46435 0.31599 8.82023 0.678555 8.29789 1.18457C8.28462 1.19548 8.27224 1.20743 8.26086 1.2203C7.86341 1.61254 7.54789 2.07988 7.33266 2.59515C7.11744 3.11042 7.00677 3.66333 7.00714 4.22174V6.36143C7.00727 6.85293 7.1218 7.33765 7.34164 7.77725L7.40547 7.90491C7.52537 8.14539 7.60396 8.40435 7.63787 8.67091L7.70425 9.18158C7.78085 9.77905 8.27108 10.5425 8.61194 10.9804C8.60573 11.0008 8.60145 11.0218 8.59916 11.043L8.41147 13.2261L2.74309 15.0479C2.09065 15.2525 1.52054 15.66 1.11572 16.2111C0.710909 16.7622 0.492536 17.4281 0.492352 18.1118L0.00593555 23.5696C0.000671959 23.6205 0.00567282 23.672 0.0206471 23.721C0.0356214 23.7699 0.0602942 23.8154 0.0931451 23.8547C0.125996 23.8939 0.16635 23.9262 0.211897 23.9496C0.257445 23.973 0.307265 23.987 0.358327 23.9909H0.3928C0.489489 23.9912 0.582704 23.9549 0.653743 23.8893C0.724781 23.8237 0.768386 23.7337 0.775799 23.6373L1.26346 18.1629C1.2641 18.1514 1.2641 18.1399 1.26346 18.1284C1.26202 17.6076 1.42728 17.1 1.7351 16.6798C2.04292 16.2597 2.47713 15.949 2.97418 15.7934L8.89022 13.8912C8.96335 13.8684 9.028 13.8243 9.07579 13.7644C9.12359 13.7046 9.15234 13.6318 9.15833 13.5554L9.32558 11.62L9.92308 12.1051C10.2626 12.3807 10.6848 12.5344 11.122 12.5416C11.5593 12.5488 11.9863 12.409 12.3347 12.1447L12.9654 11.6685L13.1275 13.5554C13.1335 13.6318 13.1623 13.7046 13.2101 13.7644C13.2578 13.8243 13.3224 13.8684 13.3956 13.8912L19.3129 15.7934C19.8096 15.9494 20.2434 16.2602 20.551 16.6803C20.8585 17.1004 21.0237 17.6078 21.0224 18.1284C21.0218 18.1399 21.0218 18.1514 21.0224 18.1629L21.5088 23.6373C21.5162 23.7337 21.5598 23.8237 21.6309 23.8893C21.7019 23.9549 21.7951 23.9912 21.8918 23.9909H21.9263C21.9773 23.987 22.0271 23.973 22.0726 23.9496C22.1182 23.9262 22.1586 23.8939 22.1915 23.8547C22.2243 23.8154 22.2489 23.7699 22.2639 23.721C22.2789 23.672 22.2839 23.6205 22.2786 23.5696L21.7999 18.1182ZM8.68725 1.89566C9.28345 1.9595 11.2406 2.19823 13.0496 2.78933L8.06294 2.85316C8.21605 2.50134 8.42709 2.17768 8.68725 1.89566ZM7.77825 4.22685C7.77832 4.02915 7.79546 3.83181 7.82936 3.63703L14.6123 3.55021C14.6565 3.77305 14.6787 3.99968 14.6787 4.22685V4.32388L7.77825 5.22775V4.22685ZM14.1284 2.36037C13.076 1.95029 11.9867 1.64206 10.8755 1.4399C10.3648 1.3416 9.91284 1.27009 9.54133 1.21903C10.3074 0.788881 11.2088 0.667471 12.0613 0.8796C12.9139 1.09173 13.6533 1.6214 14.1284 2.36037ZM11.8661 11.5332C11.6559 11.6922 11.3985 11.7762 11.1349 11.7718C10.8714 11.7674 10.6169 11.6749 10.4121 11.5089L9.27964 10.5923C8.91451 10.1429 8.51363 9.47011 8.46894 9.09605L8.40386 8.58538C8.35938 8.22992 8.25486 7.88458 8.09486 7.56405L8.03102 7.43639C7.86462 7.10467 7.77723 6.73894 7.77569 6.36782V6.0129L14.6761 5.10903V6.27207C14.6761 6.69552 14.5637 7.11137 14.3505 7.47723C14.1356 7.8439 13.9975 8.25046 13.9446 8.67219L13.891 9.09733C13.8386 9.50586 13.4122 10.2106 13.0356 10.6485L11.8661 11.5332Z" fill="#2D3748"/>
<path d="M11.4347 8.09043H11.2521V6.25203C11.2521 6.14893 11.2111 6.05004 11.1382 5.97714C11.0653 5.90424 10.9664 5.86328 10.8633 5.86328C10.7602 5.86328 10.6613 5.90424 10.5884 5.97714C10.5155 6.05004 10.4746 6.14893 10.4746 6.25203V8.47852C10.4746 8.5801 10.5149 8.67752 10.5868 8.74935C10.6586 8.82117 10.756 8.86152 10.8576 8.86152H11.4282C11.5312 8.86152 11.6299 8.82064 11.7027 8.74785C11.7755 8.67507 11.8164 8.57636 11.8164 8.47343C11.8164 8.3705 11.7755 8.27177 11.7027 8.19899C11.6299 8.12621 11.5312 8.08532 11.4282 8.08532L11.4347 8.09043Z" fill="#2D3748"/>
</g>
<defs>
<clipPath id="clip0_80_8994">
<rect width="22.288" height="24" fill="white"/>
</clipPath>
</defs>
</svg>
