<svg width="25" height="24" viewBox="0 0 25 24" fill="none" xmlns="http://www.w3.org/2000/svg">
<g clip-path="url(#clip0_80_9029)">
<path d="M4.85404 15.378C4.86538 14.5106 5.21797 13.6824 5.83545 13.073C6.45294 12.4636 7.28562 12.122 8.15318 12.122H9.89411C11.0498 12.1233 12.1604 11.674 12.9902 10.8696C13.8215 10.0751 14.3176 8.99293 14.3771 7.84457C14.3795 7.79274 14.3715 7.74096 14.3535 7.69228C14.3355 7.64361 14.308 7.59903 14.2725 7.56118C14.237 7.52333 14.1943 7.49296 14.1469 7.4719C14.0995 7.45083 14.0483 7.43948 13.9964 7.43852H13.4724C12.5513 7.43987 11.6672 7.07577 11.0143 6.42611C10.3613 5.77644 9.99264 4.89427 9.98928 3.97315V0.437997C9.98928 0.335691 9.94864 0.237568 9.8763 0.165227C9.80396 0.0928852 9.70583 0.0522461 9.60353 0.0522461C9.50122 0.0522461 9.4031 0.0928852 9.33076 0.165227C9.25842 0.237568 9.21778 0.335691 9.21778 0.437997V3.97188C9.22114 5.09773 9.67101 6.17626 10.4686 6.97081C11.2663 7.76536 12.3466 8.21103 13.4724 8.21002H13.5701C13.4385 9.01462 13.0478 9.75424 12.4573 10.3164C11.7703 10.9816 10.8517 11.3538 9.89538 11.3544H8.15445C7.14205 11.3514 6.16493 11.7261 5.41405 12.4052C4.66317 13.0843 4.19249 14.019 4.09397 15.0266C2.9602 15.182 1.92083 15.7421 1.16741 16.6034C0.413994 17.4648 -0.00269726 18.5695 -0.00585938 19.7139V23.6043C-0.00585938 23.7068 0.0348467 23.8051 0.107307 23.8775C0.179767 23.95 0.278037 23.9907 0.380511 23.9907C0.482986 23.9907 0.581255 23.95 0.653715 23.8775C0.726176 23.8051 0.766913 23.7068 0.766913 23.6043V19.7063C0.769744 18.6988 1.15559 17.7301 1.84622 16.9966C2.53685 16.2631 3.48056 15.8196 4.48604 15.7562C4.58435 15.7529 4.67757 15.7117 4.74617 15.6412C4.81477 15.5707 4.85344 15.4764 4.85404 15.378Z" fill="#2D3748"/>
<path d="M22.5572 13.1952C22.7545 12.4192 22.8542 11.6217 22.8541 10.821V8.00282C22.856 7.41878 22.741 6.84026 22.5159 6.30134C22.2908 5.76243 21.9602 5.274 21.5434 4.86483C20.7036 4.03521 19.5693 3.5721 18.3889 3.57689H18.1351C16.7317 3.57689 15.5059 4.19358 14.7383 5.27595H14.18C13.7088 5.27595 13.2569 5.08878 12.9238 4.75563C12.5906 4.42248 12.4035 3.97064 12.4035 3.49949V0.386874C12.4035 0.2844 12.3628 0.186115 12.2903 0.113655C12.2179 0.0411943 12.1196 0.000488281 12.0171 0.000488281C11.9146 0.000488281 11.8163 0.0411943 11.7439 0.113655C11.6714 0.186115 11.6307 0.2844 11.6307 0.386874V3.49949C11.6317 4.1755 11.9008 4.82351 12.3789 5.3014C12.8571 5.77929 13.5052 6.04804 14.1812 6.04871H14.9426C15.0079 6.04949 15.0723 6.03344 15.1296 6.0021C15.187 5.97077 15.2353 5.9252 15.2699 5.86979C15.8803 4.90416 16.9195 4.34711 18.1338 4.34711H18.3876C19.365 4.34273 20.3043 4.7255 21.0003 5.41172C21.344 5.74931 21.6167 6.15223 21.8023 6.59678C21.988 7.04132 22.0829 7.51852 22.0814 8.00028V10.8236C22.0813 11.4485 22.0149 12.0716 21.8834 12.6825C20.8231 11.9823 19.5724 11.6267 18.3022 11.6642C17.0321 11.7018 15.8045 12.1307 14.7874 12.8923C13.7702 13.6539 13.0131 14.7111 12.6196 15.9194C12.2261 17.1276 12.2153 18.4279 12.5887 19.6425H12.5583H8.30874C7.68536 19.6422 7.07401 19.4706 6.54145 19.1466C6.00889 18.8226 5.57557 18.3586 5.28875 17.8051C5.25165 17.7324 5.19216 17.6735 5.11905 17.6372C5.04593 17.6008 4.96308 17.589 4.88271 17.6033C4.1504 17.723 3.48464 18.0996 3.00473 18.6655C2.52482 19.2315 2.2621 19.9498 2.26368 20.6918V23.6103C2.26368 23.7128 2.30438 23.8111 2.37685 23.8835C2.44931 23.956 2.54761 23.9967 2.65008 23.9967C2.75255 23.9967 2.85082 23.956 2.92328 23.8835C2.99575 23.8111 3.03645 23.7128 3.03645 23.6103V20.6918C3.03506 20.178 3.20204 19.6778 3.51186 19.2678C3.82167 18.8579 4.25728 18.5607 4.75201 18.4218C5.12424 19.0301 5.64638 19.5328 6.26846 19.8816C6.89054 20.2304 7.59174 20.4137 8.30493 20.4139H12.5545C12.6055 20.4142 12.656 20.4043 12.7031 20.3847C12.7502 20.365 12.7928 20.3362 12.8286 20.2997C13.1985 21.1467 13.7539 21.8996 14.4539 22.5031C15.1539 23.1065 15.9805 23.545 16.8726 23.7861C17.7648 24.0272 18.6997 24.0648 19.6084 23.8961C20.517 23.7274 21.3761 23.3568 22.1223 22.8115C22.8685 22.2662 23.4826 21.5602 23.9193 20.7458C24.356 19.9313 24.6042 19.0291 24.6454 18.1058C24.6867 17.1826 24.52 16.2619 24.1577 15.4117C23.7954 14.5615 23.2467 13.8036 22.5522 13.1939L22.5572 13.1952ZM18.4891 23.2284C17.4212 23.2286 16.3772 22.9122 15.4892 22.3191C14.6011 21.7259 13.9089 20.8828 13.5 19.8962C13.0912 18.9097 12.9841 17.8241 13.1923 16.7766C13.4005 15.7292 13.9146 14.7671 14.6696 14.0118C15.4246 13.2566 16.3867 12.7423 17.4341 12.5338C18.4815 12.3254 19.5671 12.4323 20.5537 12.8409C21.5404 13.2495 22.3837 13.9415 22.977 14.8294C23.5704 15.7174 23.887 16.7613 23.887 17.8292C23.8854 19.2604 23.3161 20.6325 22.3042 21.6447C21.2923 22.6568 19.9204 23.2264 18.4891 23.2284Z" fill="#2D3748"/>
<path d="M15.9514 16.5224C16.1609 16.5221 16.3657 16.4598 16.5397 16.3432C16.7138 16.2266 16.8494 16.0611 16.9294 15.8674C17.0094 15.6738 17.0302 15.4608 16.9892 15.2554C16.9482 15.0499 16.8472 14.8612 16.6989 14.7132C16.5507 14.5651 16.3619 14.4644 16.1564 14.4236C15.9509 14.3828 15.7379 14.4039 15.5444 14.4841C15.3509 14.5643 15.1855 14.7001 15.0691 14.8743C14.9527 15.0485 14.8906 15.2534 14.8906 15.4629C14.891 15.744 15.0029 16.0135 15.2018 16.2121C15.4007 16.4108 15.6703 16.5224 15.9514 16.5224ZM15.9514 15.1748C16.0084 15.1748 16.0641 15.1917 16.1114 15.2234C16.1588 15.255 16.1958 15.3 16.2176 15.3526C16.2394 15.4053 16.2451 15.4632 16.2339 15.519C16.2228 15.5749 16.1954 15.6262 16.1551 15.6665C16.1148 15.7068 16.0635 15.7342 16.0076 15.7454C15.9518 15.7565 15.8939 15.7508 15.8412 15.729C15.7886 15.7072 15.7436 15.6702 15.7119 15.6229C15.6803 15.5755 15.6634 15.5198 15.6634 15.4629C15.6634 15.3865 15.6937 15.3132 15.7478 15.2592C15.8018 15.2052 15.875 15.1748 15.9514 15.1748Z" fill="#2D3748"/>
<path d="M18.4416 16.5224C18.6511 16.5221 18.8559 16.4598 19.03 16.3432C19.204 16.2266 19.3396 16.0611 19.4196 15.8674C19.4996 15.6738 19.5204 15.4608 19.4794 15.2554C19.4384 15.0499 19.3374 14.8612 19.1891 14.7132C19.0409 14.5651 18.8521 14.4644 18.6466 14.4236C18.4411 14.3828 18.2282 14.4039 18.0346 14.4841C17.8411 14.5643 17.6757 14.7001 17.5593 14.8743C17.443 15.0485 17.3809 15.2534 17.3809 15.4629C17.3812 15.744 17.4931 16.0135 17.692 16.2121C17.8909 16.4108 18.1605 16.5224 18.4416 16.5224ZM18.4416 15.1748C18.4986 15.1748 18.5543 15.1917 18.6017 15.2234C18.6491 15.255 18.686 15.3 18.7078 15.3526C18.7296 15.4053 18.7353 15.4632 18.7242 15.519C18.7131 15.5749 18.6856 15.6262 18.6453 15.6665C18.605 15.7068 18.5537 15.7342 18.4978 15.7454C18.442 15.7565 18.3841 15.7508 18.3314 15.729C18.2788 15.7072 18.2338 15.6702 18.2021 15.6229C18.1705 15.5755 18.1536 15.5198 18.1536 15.4629C18.1536 15.3865 18.184 15.3132 18.238 15.2592C18.292 15.2052 18.3653 15.1748 18.4416 15.1748Z" fill="#2D3748"/>
<path d="M20.9319 16.5224C21.1414 16.5221 21.3461 16.4598 21.5202 16.3432C21.6943 16.2266 21.8299 16.0611 21.9099 15.8674C21.9899 15.6738 22.0107 15.4608 21.9696 15.2554C21.9286 15.0499 21.8276 14.8612 21.6794 14.7132C21.5312 14.5651 21.3424 14.4644 21.1369 14.4236C20.9314 14.3828 20.7184 14.4039 20.5249 14.4841C20.3313 14.5643 20.1659 14.7001 20.0496 14.8743C19.9332 15.0485 19.8711 15.2534 19.8711 15.4629C19.8714 15.744 19.9833 16.0135 20.1822 16.2121C20.3812 16.4108 20.6508 16.5224 20.9319 16.5224ZM20.9319 15.1748C20.9889 15.1748 21.0445 15.1917 21.0919 15.2234C21.1393 15.255 21.1762 15.3 21.198 15.3526C21.2198 15.4053 21.2255 15.4632 21.2144 15.519C21.2033 15.5749 21.1759 15.6262 21.1356 15.6665C21.0953 15.7068 21.044 15.7342 20.9881 15.7454C20.9322 15.7565 20.8743 15.7508 20.8217 15.729C20.7691 15.7072 20.7241 15.6702 20.6924 15.6229C20.6608 15.5755 20.6439 15.5198 20.6439 15.4629C20.6439 15.3865 20.6742 15.3132 20.7282 15.2592C20.7822 15.2052 20.8555 15.1748 20.9319 15.1748Z" fill="#2D3748"/>
<path d="M15.9502 19.0234C15.7406 19.0234 15.5357 19.0856 15.3615 19.202C15.1873 19.3184 15.0515 19.4839 14.9713 19.6775C14.8911 19.8711 14.8701 20.0841 14.911 20.2897C14.9519 20.4952 15.0528 20.684 15.201 20.8322C15.3492 20.9804 15.5379 21.0813 15.7434 21.1221C15.949 21.163 16.162 21.1421 16.3556 21.0619C16.5492 20.9817 16.7147 20.8459 16.8311 20.6716C16.9475 20.4974 17.0097 20.2925 17.0097 20.083C17.0093 19.8021 16.8976 19.5328 16.699 19.3341C16.5004 19.1355 16.2311 19.0238 15.9502 19.0234ZM15.9502 20.371C15.8931 20.3713 15.8373 20.3546 15.7898 20.3231C15.7423 20.2916 15.7052 20.2467 15.6832 20.1941C15.6612 20.1415 15.6553 20.0835 15.6662 20.0276C15.6772 19.9716 15.7045 19.9202 15.7448 19.8797C15.785 19.8393 15.8363 19.8118 15.8922 19.8006C15.9481 19.7893 16.0061 19.795 16.0588 19.8167C16.1116 19.8385 16.1566 19.8754 16.1883 19.9228C16.22 19.9702 16.2369 20.0259 16.2369 20.083C16.2369 20.1591 16.2068 20.2322 16.153 20.2862C16.0993 20.3402 16.0263 20.3707 15.9502 20.371Z" fill="#2D3748"/>
<path d="M18.4423 19.0234C18.2328 19.0234 18.0279 19.0856 17.8537 19.202C17.6795 19.3184 17.5437 19.4839 17.4635 19.6775C17.3833 19.8711 17.3623 20.0841 17.4032 20.2897C17.4441 20.4952 17.545 20.684 17.6931 20.8322C17.8413 20.9804 18.0301 21.0813 18.2356 21.1221C18.4412 21.163 18.6542 21.1421 18.8478 21.0619C19.0414 20.9817 19.2069 20.8459 19.3233 20.6716C19.4397 20.4974 19.5019 20.2925 19.5019 20.083C19.5015 19.8021 19.3898 19.5328 19.1912 19.3341C18.9926 19.1355 18.7232 19.0238 18.4423 19.0234ZM18.4423 20.371C18.3853 20.3713 18.3295 20.3546 18.282 20.3231C18.2345 20.2916 18.1973 20.2467 18.1753 20.1941C18.1533 20.1415 18.1474 20.0835 18.1584 20.0276C18.1694 19.9716 18.1967 19.9202 18.2369 19.8797C18.2772 19.8393 18.3285 19.8118 18.3844 19.8006C18.4403 19.7893 18.4983 19.795 18.551 19.8167C18.6037 19.8385 18.6488 19.8754 18.6805 19.9228C18.7122 19.9702 18.7291 20.0259 18.7291 20.083C18.7291 20.1591 18.6989 20.2322 18.6452 20.2862C18.5914 20.3402 18.5185 20.3707 18.4423 20.371Z" fill="#2D3748"/>
<path d="M20.9326 19.0234C20.723 19.0234 20.5182 19.0856 20.3439 19.202C20.1697 19.3184 20.0339 19.4839 19.9537 19.6775C19.8735 19.8711 19.8525 20.0841 19.8934 20.2897C19.9343 20.4952 20.0352 20.684 20.1834 20.8322C20.3316 20.9804 20.5203 21.0813 20.7259 21.1221C20.9314 21.163 21.1444 21.1421 21.338 21.0619C21.5317 20.9817 21.6971 20.8459 21.8135 20.6716C21.93 20.4974 21.9921 20.2925 21.9921 20.083C21.9918 19.8021 21.88 19.5328 21.6814 19.3341C21.4828 19.1355 21.2135 19.0238 20.9326 19.0234ZM20.9326 20.371C20.8756 20.371 20.8199 20.3541 20.7726 20.3225C20.7252 20.2908 20.6883 20.2458 20.6665 20.1932C20.6447 20.1406 20.639 20.0826 20.6501 20.0268C20.6612 19.9709 20.6886 19.9196 20.7289 19.8793C20.7692 19.839 20.8205 19.8116 20.8764 19.8005C20.9323 19.7894 20.9902 19.7951 21.0428 19.8169C21.0954 19.8387 21.1404 19.8756 21.1721 19.9229C21.2037 19.9703 21.2206 20.026 21.2206 20.083C21.2206 20.1208 21.2132 20.1583 21.1987 20.1932C21.1842 20.2282 21.163 20.2599 21.1362 20.2866C21.1095 20.3134 21.0778 20.3346 21.0428 20.3491C21.0079 20.3636 20.9704 20.371 20.9326 20.371Z" fill="#2D3748"/>
<path d="M15.7427 17.7212C15.7429 17.5113 15.6809 17.3061 15.5645 17.1314C15.448 16.9568 15.2823 16.8206 15.0884 16.7402C14.8946 16.6597 14.6812 16.6386 14.4753 16.6795C14.2694 16.7204 14.0802 16.8215 13.9318 16.9699C13.7834 17.1183 13.6823 17.3075 13.6414 17.5133C13.6005 17.7192 13.6217 17.9326 13.7021 18.1265C13.7825 18.3204 13.9187 18.4861 14.0933 18.6025C14.268 18.719 14.4733 18.781 14.6832 18.7808C14.9641 18.7804 15.2334 18.6687 15.432 18.4701C15.6306 18.2715 15.7424 18.0021 15.7427 17.7212ZM14.6832 18.0093C14.6262 18.0095 14.5703 17.9929 14.5228 17.9614C14.4753 17.9299 14.4381 17.885 14.4161 17.8324C14.3941 17.7797 14.3883 17.7218 14.3993 17.6658C14.4102 17.6099 14.4376 17.5584 14.4778 17.518C14.518 17.4776 14.5693 17.4501 14.6252 17.4388C14.6812 17.4276 14.7391 17.4333 14.7918 17.455C14.8445 17.4768 14.8896 17.5137 14.9213 17.5611C14.953 17.6085 14.9699 17.6642 14.9699 17.7212C14.97 17.7974 14.9398 17.8705 14.886 17.9245C14.8323 17.9785 14.7593 18.009 14.6832 18.0093Z" fill="#2D3748"/>
<path d="M18.2329 17.7212C18.2332 17.5113 18.1711 17.3061 18.0547 17.1314C17.9382 16.9568 17.7725 16.8206 17.5787 16.7402C17.3848 16.6597 17.1714 16.6386 16.9655 16.6795C16.7596 16.7204 16.5705 16.8215 16.422 16.9699C16.2736 17.1183 16.1725 17.3075 16.1317 17.5133C16.0908 17.7192 16.1119 17.9326 16.1923 18.1265C16.2728 18.3204 16.4089 18.4861 16.5836 18.6025C16.7582 18.719 16.9635 18.781 17.1734 18.7808C17.4543 18.7804 17.7236 18.6687 17.9222 18.4701C18.1208 18.2715 18.2326 18.0021 18.2329 17.7212ZM17.1734 18.0093C17.1164 18.0095 17.0606 17.9929 17.013 17.9614C16.9655 17.9299 16.9284 17.885 16.9064 17.8324C16.8844 17.7797 16.8785 17.7218 16.8895 17.6658C16.9004 17.6099 16.9278 17.5584 16.968 17.518C17.0082 17.4776 17.0595 17.4501 17.1155 17.4388C17.1714 17.4276 17.2294 17.4333 17.2821 17.455C17.3348 17.4768 17.3798 17.5137 17.4115 17.5611C17.4432 17.6085 17.4602 17.6642 17.4602 17.7212C17.4602 17.7974 17.43 17.8705 17.3762 17.9245C17.3225 17.9785 17.2496 18.009 17.1734 18.0093Z" fill="#2D3748"/>
<path d="M22.195 16.6606C21.9855 16.6609 21.7808 16.7233 21.6067 16.8398C21.4326 16.9564 21.297 17.122 21.217 17.3156C21.137 17.5092 21.1162 17.7222 21.1572 17.9277C21.1983 18.1331 21.2993 18.3218 21.4475 18.4698C21.5957 18.6179 21.7845 18.7187 21.99 18.7594C22.1955 18.8002 22.4085 18.7792 22.602 18.6989C22.7955 18.6187 22.9609 18.4829 23.0773 18.3087C23.1937 18.1345 23.2558 17.9297 23.2558 17.7202C23.2555 17.4391 23.1435 17.1696 22.9446 16.9709C22.7457 16.7722 22.4761 16.6606 22.195 16.6606ZM22.195 18.0082C22.138 18.0082 22.0823 17.9913 22.0349 17.9597C21.9876 17.928 21.9507 17.883 21.9289 17.8304C21.9071 17.7778 21.9014 17.7199 21.9125 17.664C21.9236 17.6081 21.951 17.5568 21.9913 17.5165C22.0316 17.4762 22.0829 17.4488 22.1388 17.4377C22.1947 17.4266 22.2526 17.4323 22.3052 17.4541C22.3578 17.4759 22.4028 17.5128 22.4345 17.5602C22.4661 17.6075 22.483 17.6632 22.483 17.7202C22.4832 17.7581 22.4759 17.7957 22.4615 17.8308C22.4471 17.8659 22.4259 17.8978 22.3991 17.9247C22.3723 17.9515 22.3405 17.9729 22.3055 17.9874C22.2705 18.002 22.2329 18.0095 22.195 18.0095V18.0082Z" fill="#2D3748"/>
<path d="M20.7251 17.7212C20.7254 17.5113 20.6633 17.3061 20.5469 17.1314C20.4304 16.9568 20.2647 16.8206 20.0709 16.7402C19.877 16.6597 19.6636 16.6386 19.4577 16.6795C19.2518 16.7204 19.0627 16.8215 18.9142 16.9699C18.7658 17.1183 18.6647 17.3075 18.6238 17.5133C18.5829 17.7192 18.6041 17.9326 18.6845 18.1265C18.765 18.3204 18.9011 18.4861 19.0758 18.6025C19.2504 18.719 19.4557 18.781 19.6656 18.7808C19.9465 18.7804 20.2158 18.6687 20.4144 18.4701C20.613 18.2715 20.7248 18.0021 20.7251 17.7212ZM19.6656 18.0093C19.6086 18.0095 19.5528 17.9929 19.5052 17.9614C19.4577 17.9299 19.4206 17.885 19.3986 17.8324C19.3766 17.7797 19.3707 17.7218 19.3817 17.6658C19.3926 17.6099 19.42 17.5584 19.4602 17.518C19.5004 17.4776 19.5518 17.4501 19.6077 17.4388C19.6636 17.4276 19.7215 17.4333 19.7742 17.455C19.8269 17.4768 19.872 17.5137 19.9037 17.5611C19.9354 17.6085 19.9524 17.6642 19.9524 17.7212C19.9524 17.7974 19.9222 17.8705 19.8684 17.9245C19.8147 17.9785 19.7418 18.009 19.6656 18.0093Z" fill="#2D3748"/>
</g>
<defs>
<clipPath id="clip0_80_9029">
<rect width="24.6586" height="24" fill="white"/>
</clipPath>
</defs>
</svg>
