<svg width="25" height="24" viewBox="0 0 25 24" fill="none" xmlns="http://www.w3.org/2000/svg">
<path fill-rule="evenodd" clip-rule="evenodd" d="M8.61829 10.4281C9.57104 9.8027 10.2002 8.72482 10.2002 7.5C10.2002 5.567 8.63319 4 6.7002 4C4.7672 4 3.2002 5.567 3.2002 7.5C3.2002 8.72482 3.82935 9.8027 4.7821 10.4281C3.25613 11.1482 2.2002 12.7008 2.2002 14.5V16.1429V19C2.2002 19.5523 2.64791 20 3.2002 20C3.75248 20 4.2002 19.5523 4.2002 19V16.1429V14.5C4.2002 13.1193 5.31948 12 6.7002 12C8.08091 12 9.2002 13.1193 9.2002 14.5V16.1429V19C9.2002 19.5523 9.64791 20 10.2002 20C10.7525 20 11.2002 19.5523 11.2002 19V16.1429V14.5C11.2002 12.7008 10.1443 11.1482 8.61829 10.4281ZM6.7002 6C7.52862 6 8.2002 6.67157 8.2002 7.5C8.2002 8.32843 7.52862 9 6.7002 9C5.87177 9 5.2002 8.32843 5.2002 7.5C5.2002 6.67157 5.87177 6 6.7002 6ZM19.6183 10.4281C20.571 9.8027 21.2002 8.72482 21.2002 7.5C21.2002 5.567 19.6332 4 17.7002 4C15.7672 4 14.2002 5.567 14.2002 7.5C14.2002 8.72482 14.8293 9.8027 15.7821 10.4281C14.2561 11.1482 13.2002 12.7008 13.2002 14.5V16.1429V19C13.2002 19.5523 13.6479 20 14.2002 20C14.7525 20 15.2002 19.5523 15.2002 19V16.1429V14.5C15.2002 13.1193 16.3195 12 17.7002 12C19.0809 12 20.2002 13.1193 20.2002 14.5V16.1429V19C20.2002 19.5523 20.6479 20 21.2002 20C21.7525 20 22.2002 19.5523 22.2002 19V16.1429V14.5C22.2002 12.7008 21.1443 11.1482 19.6183 10.4281ZM19.2002 7.5C19.2002 6.67157 18.5286 6 17.7002 6C16.8718 6 16.2002 6.67157 16.2002 7.5C16.2002 8.32843 16.8718 9 17.7002 9C18.5286 9 19.2002 8.32843 19.2002 7.5Z" fill="#1A202C"/>
</svg>
