<svg width="25" height="24" viewBox="0 0 25 24" fill="none" xmlns="http://www.w3.org/2000/svg">
<path fill-rule="evenodd" clip-rule="evenodd" d="M8.2002 9V8C8.2002 5.79086 9.99106 4 12.2002 4C14.4093 4 16.2002 5.79086 16.2002 8V9L8.2002 9ZM6.2002 9.34505V8C6.2002 4.68629 8.88649 2 12.2002 2C15.5139 2 18.2002 4.68629 18.2002 8V9.34505C18.8018 9.7323 19.2002 10.4079 19.2002 11.1765V15C19.2002 18.866 16.0662 22 12.2002 22C8.3342 22 5.2002 18.866 5.2002 15V11.1765C5.2002 10.4079 5.59862 9.7323 6.2002 9.34505ZM7.37667 11C7.2792 11 7.2002 11.079 7.2002 11.1765L7.2002 15C7.2002 17.7614 9.43877 20 12.2002 20C14.9616 20 17.2002 17.7614 17.2002 15V11.1765C17.2002 11.079 17.1212 11 17.0237 11H16.2002H8.2002H7.37667ZM12.2002 13C13.3048 13 14.2002 13.8954 14.2002 15C14.2002 16.1046 13.3048 17 12.2002 17C11.0956 17 10.2002 16.1046 10.2002 15C10.2002 13.8954 11.0956 13 12.2002 13Z" fill="#1A202C"/>
</svg>
