<svg width="24" height="24" viewBox="0 0 24 24" fill="none" xmlns="http://www.w3.org/2000/svg">
<path fill-rule="evenodd" clip-rule="evenodd" d="M6.94986 14.1961C6.11207 14.1961 5.4329 14.8949 5.4329 15.7569C5.4329 16.6189 6.11207 17.3177 6.94986 17.3177C7.78765 17.3177 8.46681 16.6189 8.46681 15.7569C8.46681 14.8949 7.78765 14.1961 6.94986 14.1961ZM12.0064 14.1961C11.1686 14.1961 10.4894 14.8949 10.4894 15.7569C10.4894 16.6189 11.1686 17.3177 12.0064 17.3177C12.8442 17.3177 13.5233 16.6189 13.5233 15.7569C13.5233 14.8949 12.8442 14.1961 12.0064 14.1961ZM15.5459 15.7569C15.5459 14.8949 16.2251 14.1961 17.0629 14.1961C17.9007 14.1961 18.5798 14.8949 18.5798 15.7569C18.5798 16.6189 17.9007 17.3177 17.0629 17.3177C16.2251 17.3177 15.5459 16.6189 15.5459 15.7569ZM6.94986 18.8785C6.11207 18.8785 5.4329 19.5772 5.4329 20.4392C5.4329 21.3012 6.11207 22 6.94986 22C7.78765 22 8.46681 21.3012 8.46681 20.4392C8.46681 19.5772 7.78765 18.8785 6.94986 18.8785ZM10.4894 20.4392C10.4894 19.5772 11.1686 18.8785 12.0064 18.8785C12.8442 18.8785 13.5233 19.5772 13.5233 20.4392C13.5233 21.3012 12.8442 22 12.0064 22C11.1686 22 10.4894 21.3012 10.4894 20.4392ZM17.0629 18.8785C16.2251 18.8785 15.5459 19.5772 15.5459 20.4392C15.5459 21.3012 16.2251 22 17.0629 22C17.9007 22 18.5798 21.3012 18.5798 20.4392C18.5798 19.5772 17.9007 18.8785 17.0629 18.8785Z" fill="#1A202C"/>
<path fill-rule="evenodd" clip-rule="evenodd" d="M20.0916 9.9177L17.0289 9.09136C17.0454 8.80321 17.0767 8.50343 17.1103 8.18079C17.1392 7.9035 17.1698 7.60933 17.1944 7.29115C17.2553 6.50255 16.7661 5.80058 16.0546 5.57345C12.2922 4.37239 9.28979 5.07073 8.0406 5.48664C7.28804 5.7372 6.90286 6.48399 6.96395 7.20205L7.12851 9.13642L7.1273 9.13919L7.12367 9.1427C7.12367 9.1427 7.1214 9.14405 7.1186 9.14463C6.33622 9.30805 5.25502 9.54742 4.28993 9.79805C3.75832 8.97949 3.64421 8.31395 3.70316 7.78291C3.76506 7.22529 4.0303 6.70736 4.422 6.23487C5.20406 5.2915 6.33951 4.70853 6.59678 4.58521C6.91788 4.48998 8.69529 3.9864 10.9185 3.80425C13.2109 3.61642 15.8335 3.78346 17.8364 4.94453C19.3001 5.79308 19.9331 6.77331 20.1764 7.63587C20.4117 8.46971 20.309 9.28871 20.0916 9.9177ZM21.6214 10.6796C21.2998 11.521 20.4323 11.8041 19.7372 11.6165L16.5331 10.7521C15.8854 10.5773 15.3007 9.97243 15.3349 9.1386C15.3496 8.78125 15.397 8.31369 15.4411 7.87861C15.4654 7.63978 15.4886 7.41074 15.5049 7.21508C12.2881 6.20482 9.73153 6.768 8.65105 7.11443L8.81108 8.99551C8.88663 9.88363 8.30027 10.6739 7.46441 10.8485C6.69117 11.01 5.63256 11.2447 4.7004 11.4871C4.0787 11.6488 3.34308 11.4452 2.92599 10.8165C2.17691 9.68733 1.9119 8.59417 2.02505 7.57491C2.1363 6.5727 2.60168 5.74408 3.13429 5.10162C4.18187 3.83798 5.63345 3.12272 5.90203 2.99596C5.97003 2.96387 6.03013 2.94125 6.09828 2.92084C6.42223 2.82384 8.34765 2.27002 10.774 2.07122C13.1751 1.87449 16.2107 2.0122 18.6582 3.43103C20.456 4.47323 21.4143 5.80008 21.7982 7.16066C22.1753 8.4974 21.9703 9.76698 21.6214 10.6796Z" fill="#1A202C"/>
</svg>
