<svg width="25" height="24" viewBox="0 0 25 24" fill="none" xmlns="http://www.w3.org/2000/svg">
<path d="M22.2006 16.9201V19.9201C22.2017 20.1986 22.1447 20.4743 22.0331 20.7294C21.9216 20.9846 21.7579 21.2137 21.5527 21.402C21.3475 21.5902 21.1052 21.7336 20.8414 21.8228C20.5775 21.912 20.298 21.9452 20.0206 21.9201C16.9435 21.5857 13.9876 20.5342 11.3906 18.8501C8.97444 17.3148 6.92595 15.2663 5.39062 12.8501C3.70059 10.2413 2.64886 7.27109 2.32062 4.1801C2.29563 3.90356 2.32849 3.62486 2.41712 3.36172C2.50574 3.09859 2.64819 2.85679 2.83538 2.65172C3.02258 2.44665 3.25042 2.28281 3.50441 2.17062C3.75839 2.05843 4.03296 2.00036 4.31062 2.0001H7.31062C7.79592 1.99532 8.26641 2.16718 8.63438 2.48363C9.00235 2.80008 9.24269 3.23954 9.31062 3.7201C9.43724 4.68016 9.67207 5.62282 10.0106 6.5301C10.1452 6.88802 10.1743 7.27701 10.0945 7.65098C10.0148 8.02494 9.82948 8.36821 9.56062 8.6401L8.29062 9.9101C9.71417 12.4136 11.7871 14.4865 14.2906 15.9101L15.5606 14.6401C15.8325 14.3712 16.1758 14.1859 16.5497 14.1062C16.9237 14.0264 17.3127 14.0556 17.6706 14.1901C18.5779 14.5286 19.5206 14.7635 20.4806 14.8901C20.9664 14.9586 21.41 15.2033 21.7271 15.5776C22.0443 15.9519 22.2128 16.4297 22.2006 16.9201Z" stroke="#1A202C" stroke-width="2" stroke-linecap="round" stroke-linejoin="round"/>
</svg>
