<svg width="23" height="24" viewBox="0 0 23 24" fill="none" xmlns="http://www.w3.org/2000/svg">
<g clip-path="url(#clip0_80_8964)">
<path d="M8.6285 13.6916C8.56252 13.6229 8.51918 13.5356 8.50429 13.4414C8.48939 13.3473 8.50367 13.2509 8.5452 13.1652C8.58672 13.0794 8.65351 13.0084 8.73658 12.9617C8.81964 12.915 8.915 12.8949 9.00984 12.904C12.0618 13.2001 12.2928 13.1409 12.3922 13.1196C12.7546 13.0308 12.9773 12.8827 13.072 12.6601C13.1078 12.5734 13.1225 12.4794 13.1149 12.386C13.1073 12.2925 13.0776 12.2021 13.0282 12.1224C12.919 11.9067 12.8549 11.6709 12.8399 11.4296C13.3894 11.4118 14.3629 11.3111 14.8805 10.8244C14.9907 10.7224 15.0791 10.599 15.1402 10.4618C15.2012 10.3246 15.2338 10.1764 15.2358 10.0262C15.2452 9.52521 14.9136 8.82291 14.4956 7.93468C13.8241 6.51351 12.9879 4.73705 13.5813 3.68775C13.5894 3.67282 13.5965 3.65739 13.6026 3.64156C14.9823 2.33053 15.5614 1.08346 15.5887 1.02424C15.6084 0.980775 15.6194 0.933843 15.6211 0.886124C15.6227 0.838405 15.6148 0.790827 15.5981 0.746123C15.5813 0.701419 15.5559 0.660465 15.5233 0.625582C15.4907 0.590698 15.4516 0.562568 15.4081 0.542816C15.3646 0.523064 15.3177 0.512075 15.27 0.510462C15.2222 0.508848 15.1747 0.516648 15.13 0.533419C15.0853 0.55019 15.0443 0.575603 15.0094 0.608205C14.9745 0.640806 14.9464 0.679957 14.9267 0.723426C14.9207 0.737638 14.241 2.20382 12.5865 3.57169C11.61 4.37816 10.4885 4.99075 9.28224 5.37658C7.7977 5.83504 6.23928 6.00588 4.69068 5.87991L5.14546 4.76191C5.38164 4.14548 5.36689 3.46104 5.10437 2.85535C4.84186 2.24966 4.35247 1.77094 3.74115 1.52182C3.12982 1.27271 2.44523 1.27302 1.83414 1.52272C1.22305 1.77241 0.734127 2.25161 0.472186 2.85755L0.146501 3.65933C0.0258193 3.95734 -0.0233238 4.27949 0.00300228 4.59992C0.0293283 4.92036 0.130394 5.23016 0.298096 5.50448C0.461512 5.76986 0.525707 6.08452 0.479299 6.39271L0.443764 6.62957C0.395699 6.94879 0.456539 7.27489 0.616495 7.55529C0.77645 7.83569 1.02619 8.05403 1.32543 8.17513C1.62467 8.29622 1.956 8.31299 2.26594 8.22275C2.57588 8.1325 2.84637 7.94049 3.03383 7.67768L3.38912 7.18737C3.41688 7.14849 3.43673 7.10453 3.4475 7.05798C3.45827 7.01144 3.45976 6.96323 3.45189 6.9161C3.44403 6.86898 3.42697 6.82387 3.40167 6.78335C3.37637 6.74282 3.34334 6.70767 3.30446 6.67991C3.26558 6.65215 3.22159 6.63231 3.17504 6.62155C3.1285 6.61078 3.08029 6.60927 3.03316 6.61714C2.98604 6.625 2.94095 6.64208 2.90042 6.66737C2.85989 6.69267 2.82473 6.7257 2.79697 6.76458L2.44168 7.25607C2.34853 7.38494 2.21486 7.47885 2.06204 7.52276C1.90922 7.56667 1.74607 7.55806 1.59872 7.4983C1.45138 7.43854 1.32834 7.33108 1.24927 7.19313C1.17021 7.05517 1.13972 6.89469 1.16265 6.73735L1.19815 6.50048C1.26922 6.02265 1.16987 5.53505 0.917487 5.12313C0.809607 4.94718 0.744509 4.74836 0.727437 4.54268C0.710365 4.33699 0.741786 4.13016 0.81918 3.93882L1.14605 3.13705C1.23082 2.91276 1.35962 2.70771 1.52488 2.53398C1.69013 2.36025 1.8885 2.22136 2.10827 2.12548C2.32804 2.02961 2.56479 1.9787 2.80454 1.97575C3.0443 1.9728 3.28219 2.01787 3.50426 2.10831C3.72632 2.19875 3.92803 2.33272 4.09751 2.50233C4.26699 2.67194 4.4008 2.87377 4.49106 3.0959C4.58131 3.31804 4.62622 3.55599 4.62308 3.79575C4.61993 4.0355 4.56883 4.27221 4.47278 4.4919L3.83087 6.06821C3.83087 6.06821 3.83087 6.07768 3.83087 6.08242C3.83087 6.08716 3.82378 6.10611 3.82141 6.11795C3.81904 6.1298 3.81548 6.14282 3.81311 6.15466C3.81075 6.1665 3.81311 6.16413 3.81311 6.16887C3.81252 6.17517 3.81252 6.18152 3.81311 6.18783C3.81193 6.20083 3.81193 6.2139 3.81311 6.2269C3.81195 6.23832 3.81195 6.24983 3.81311 6.26125C3.81423 6.27292 3.81661 6.28445 3.82023 6.2956C3.82252 6.3074 3.82608 6.31891 3.83087 6.32994C3.83448 6.34049 3.83884 6.35078 3.84391 6.36073C3.84391 6.37139 3.85455 6.38205 3.86047 6.39271L3.87944 6.42113L3.90194 6.44837L3.9268 6.47325C3.93534 6.48138 3.94444 6.48889 3.95404 6.49574C3.96305 6.50273 3.97254 6.50907 3.98246 6.5147C3.99351 6.52171 4.00498 6.52804 4.01681 6.53365L4.03341 6.54193H4.0476L4.08314 6.55259L4.11986 6.56088H4.13406C4.64794 6.61377 5.16417 6.64064 5.68077 6.64141C6.97917 6.65036 8.27102 6.45657 9.50965 6.06702C10.6428 5.70374 11.7074 5.1542 12.6599 4.44097C12.6196 5.65015 13.2816 7.05592 13.8442 8.24378C14.177 8.95437 14.5216 9.68035 14.5157 10.012C14.5154 10.0655 14.5034 10.1182 14.4807 10.1667C14.458 10.2151 14.4251 10.2581 14.3842 10.2926C14.0207 10.6349 13.027 10.7249 12.4894 10.7012C12.3942 10.6967 12.3011 10.7298 12.2301 10.7934C12.1592 10.857 12.1162 10.946 12.1104 11.0411C12.0875 11.4982 12.1684 11.9545 12.3472 12.3758C12.3084 12.3893 12.2689 12.4008 12.2288 12.4102C12.0654 12.4291 11.1487 12.3806 9.0821 12.1733C8.8395 12.1496 8.59546 12.2008 8.38285 12.32C8.17023 12.4392 7.99925 12.6207 7.89293 12.8401C7.78661 13.0594 7.75007 13.3061 7.78821 13.5468C7.82634 13.7876 7.93733 14.0109 8.10623 14.1866L9.60084 15.7405C9.03948 15.757 8.75877 15.7807 8.59652 15.9856C8.5588 16.033 8.53187 16.0881 8.51756 16.147C8.50324 16.2059 8.50189 16.2672 8.51363 16.3267C8.54323 16.4913 8.61192 17.794 8.0399 18.3732C7.80304 18.6207 7.46197 18.706 7.01312 18.6337C6.53939 18.5591 6.09646 18.2476 5.62393 17.9172C5.49484 17.8272 5.36455 17.736 5.23191 17.6484L1.35567 15.0536C1.27558 15.0046 1.17966 14.9885 1.08796 15.0086C0.996263 15.0288 0.915892 15.0836 0.863707 15.1616C0.811523 15.2397 0.791567 15.3349 0.80799 15.4273C0.824414 15.5198 0.875961 15.6023 0.951836 15.6575L3.20202 17.1664C2.52341 17.3653 1.87678 17.9575 1.18277 19.0127C1.12985 19.0931 1.11103 19.1912 1.13047 19.2855C1.1499 19.3798 1.20599 19.4625 1.2864 19.5154C1.36681 19.5684 1.46495 19.5872 1.55923 19.5677C1.65351 19.5483 1.7362 19.4922 1.78912 19.4118C2.42036 18.4537 2.98528 17.9373 3.51704 17.8355C3.80719 17.7798 4.07958 17.7277 5.20468 18.5129C5.7234 18.8753 6.25871 19.2496 6.89469 19.3514C7.76278 19.49 8.28387 19.1643 8.56928 18.867C9.21118 18.1967 9.27987 17.0503 9.24789 16.4842C9.37935 16.4735 9.54634 16.4688 9.66477 16.4653C10.2214 16.4487 10.4737 16.4333 10.6324 16.2485C10.6912 16.1799 10.7224 16.0918 10.72 16.0014C10.7176 15.9111 10.6817 15.8248 10.6193 15.7594L8.6285 13.6916Z" fill="#2D3748"/>
<path d="M3.53793 5.45974H3.55453C3.64795 5.45953 3.73771 5.42338 3.80518 5.35877C3.87266 5.29417 3.91267 5.20607 3.91693 5.11275L3.95007 4.39386C3.96148 4.14121 3.88329 3.89266 3.72928 3.69205C3.57528 3.49145 3.35535 3.35168 3.10833 3.29744C2.86131 3.24319 2.60308 3.27794 2.37918 3.39556C2.15529 3.51317 1.98014 3.7061 1.88464 3.94028L1.8053 4.13451C1.77472 4.22251 1.77909 4.3189 1.81751 4.40378C1.85592 4.48866 1.92547 4.55555 2.01178 4.59065C2.09808 4.62575 2.19456 4.62637 2.28131 4.5924C2.36807 4.55843 2.43846 4.49244 2.47798 4.40807L2.55732 4.21503C2.58758 4.13881 2.64395 4.07584 2.71635 4.03733C2.78874 3.99881 2.87246 3.98727 2.95257 4.00477C3.03268 4.02227 3.10396 4.06768 3.1537 4.13287C3.20343 4.19807 3.22839 4.27881 3.2241 4.3607L3.19094 5.07958C3.18855 5.12738 3.19566 5.17517 3.21184 5.2202C3.22802 5.26524 3.25296 5.30663 3.28523 5.34197C3.31749 5.37732 3.35644 5.40591 3.39981 5.42613C3.44319 5.44634 3.49012 5.45777 3.53793 5.45974Z" fill="#2D3748"/>
<path d="M14.177 5.24286C14.1127 5.28651 14.064 5.34963 14.0382 5.42295C14.0124 5.49626 14.0108 5.57594 14.0335 5.65025C14.0563 5.72457 14.1023 5.78961 14.1648 5.83586C14.2273 5.88212 14.3029 5.90714 14.3807 5.90725C14.4534 5.90767 14.5245 5.88576 14.5844 5.84448C15.8313 5.00421 16.7512 3.76059 17.1898 2.32235C17.3951 1.68336 17.4971 1.0157 17.4918 0.34456C17.4844 0.250443 17.4406 0.162919 17.3697 0.100513C17.2989 0.0381078 17.2065 0.00571063 17.1122 0.0101722C17.0179 0.0146338 16.929 0.0556097 16.8644 0.124425C16.7997 0.19324 16.7644 0.284492 16.7659 0.378895C16.7594 1.339 16.5201 2.28321 16.0683 3.13042C15.6165 3.97762 14.9659 4.70253 14.1722 5.24286H14.177Z" fill="#2D3748"/>
<path d="M14.5137 13.1695C14.5135 13.2172 14.5228 13.2645 14.5409 13.3086C14.5591 13.3527 14.5857 13.3928 14.6194 13.4265C14.6531 13.4603 14.693 13.4871 14.7371 13.5054C14.7811 13.5237 14.8284 13.5331 14.8761 13.5331H19.9994C20.0921 13.5278 20.1792 13.4873 20.243 13.4198C20.3067 13.3523 20.3422 13.2629 20.3422 13.1701C20.3422 13.0773 20.3067 12.988 20.243 12.9205C20.1792 12.853 20.0921 12.8124 19.9994 12.8071H14.8761C14.8285 12.8071 14.7813 12.8165 14.7374 12.8347C14.6934 12.8529 14.6535 12.8796 14.6198 12.9133C14.5862 12.9469 14.5595 12.9869 14.5413 13.0308C14.523 13.0748 14.5137 13.1219 14.5137 13.1695Z" fill="#2D3748"/>
<path d="M14.8415 21.9357L11.8878 17.7504C11.8296 17.6788 11.7464 17.6321 11.655 17.6196C11.5637 17.6071 11.4709 17.6298 11.3957 17.683C11.3204 17.7363 11.2682 17.8162 11.2496 17.9066C11.2311 17.9969 11.2475 18.0909 11.2957 18.1696L14.2505 22.3538C14.278 22.3926 14.3128 22.4257 14.3531 22.4512C14.3933 22.4766 14.4382 22.4938 14.4851 22.5019C14.532 22.51 14.58 22.5087 14.6264 22.4983C14.6728 22.4878 14.7168 22.4683 14.7556 22.4408C14.7945 22.4134 14.8276 22.3785 14.853 22.3383C14.8784 22.298 14.8957 22.2532 14.9038 22.2063C14.9118 22.1594 14.9106 22.1113 14.9001 22.0649C14.8897 22.0185 14.8701 21.9746 14.8427 21.9357H14.8415Z" fill="#2D3748"/>
<path d="M19.0319 18.8672L14.7032 16.1278C14.663 16.0992 14.6173 16.0791 14.569 16.0687C14.5207 16.0583 14.4708 16.0578 14.4224 16.0674C14.3739 16.0769 14.3279 16.0962 14.2871 16.1241C14.2464 16.152 14.2117 16.1879 14.1853 16.2296C14.1589 16.2714 14.1413 16.318 14.1335 16.3668C14.1257 16.4156 14.1279 16.4654 14.14 16.5133C14.1521 16.5612 14.1739 16.6061 14.2039 16.6453C14.2339 16.6845 14.2717 16.7172 14.3148 16.7413L18.6422 19.4806C18.7001 19.518 18.7676 19.5377 18.8365 19.5375C18.9152 19.5375 18.9918 19.512 19.0547 19.4648C19.1177 19.4176 19.1637 19.3512 19.1857 19.2756C19.2077 19.2001 19.2046 19.1194 19.1769 19.0457C19.1492 18.9721 19.0983 18.9094 19.0319 18.8672Z" fill="#2D3748"/>
<path d="M21.7938 14.7456C21.6906 14.7454 21.5898 14.7757 21.5039 14.8329C21.4181 14.89 21.3511 14.9713 21.3115 15.0665C21.2719 15.1617 21.2614 15.2665 21.2814 15.3676C21.3013 15.4688 21.3509 15.5618 21.4237 15.6348C21.4965 15.7077 21.5894 15.7575 21.6905 15.7777C21.7916 15.7979 21.8964 15.7877 21.9917 15.7483C22.087 15.7088 22.1684 15.6421 22.2258 15.5563C22.2831 15.4706 22.3137 15.3698 22.3137 15.2667C22.3137 15.1287 22.2589 14.9963 22.1615 14.8986C22.064 14.801 21.9318 14.7459 21.7938 14.7456Z" fill="#2D3748"/>
<path d="M17.9594 16.4041C18.2465 16.4041 18.4793 16.1713 18.4793 15.8842C18.4793 15.597 18.2465 15.3643 17.9594 15.3643C17.6722 15.3643 17.4395 15.597 17.4395 15.8842C17.4395 16.1713 17.6722 16.4041 17.9594 16.4041Z" fill="#2D3748"/>
<path d="M20.434 19.5327C20.3312 19.5327 20.2306 19.5632 20.1451 19.6203C20.0596 19.6775 19.993 19.7587 19.9536 19.8537C19.9143 19.9487 19.904 20.0532 19.9241 20.154C19.9441 20.2549 19.9936 20.3475 20.0663 20.4202C20.1391 20.493 20.2317 20.5425 20.3326 20.5625C20.4334 20.5826 20.5379 20.5723 20.6329 20.5329C20.7279 20.4936 20.8091 20.427 20.8663 20.3415C20.9234 20.256 20.9539 20.1554 20.9539 20.0526C20.9539 19.9147 20.8991 19.7825 20.8016 19.685C20.7041 19.5875 20.5719 19.5327 20.434 19.5327Z" fill="#2D3748"/>
<path d="M17.0191 20.3096C16.9161 20.3096 16.8153 20.3401 16.7296 20.3974C16.6439 20.4547 16.5771 20.536 16.5377 20.6313C16.4983 20.7265 16.488 20.8312 16.5081 20.9323C16.5282 21.0334 16.5778 21.1263 16.6507 21.1991C16.7235 21.272 16.8164 21.3216 16.9175 21.3418C17.0186 21.3619 17.1233 21.3515 17.2186 21.3121C17.3138 21.2727 17.3951 21.2059 17.4524 21.1202C17.5097 21.0345 17.5402 20.9337 17.5402 20.8307C17.5402 20.6925 17.4853 20.5599 17.3876 20.4622C17.2899 20.3645 17.1573 20.3096 17.0191 20.3096Z" fill="#2D3748"/>
<path d="M20.4324 22.7471C20.3293 22.7468 20.2285 22.7772 20.1426 22.8343C20.0568 22.8914 19.9898 22.9727 19.9502 23.0679C19.9105 23.1631 19.9001 23.268 19.92 23.3691C19.94 23.4703 19.9895 23.5632 20.0623 23.6362C20.1352 23.7092 20.228 23.759 20.3292 23.7792C20.4303 23.7994 20.5351 23.7891 20.6304 23.7497C20.7257 23.7103 20.8071 23.6435 20.8644 23.5578C20.9217 23.4721 20.9523 23.3713 20.9523 23.2682C20.9523 23.1302 20.8976 22.9978 20.8001 22.9001C20.7027 22.8024 20.5704 22.7474 20.4324 22.7471Z" fill="#2D3748"/>
<path d="M15.3973 22.959C15.2941 22.9588 15.1932 22.9892 15.1073 23.0463C15.0215 23.1035 14.9545 23.1849 14.9149 23.2801C14.8753 23.3754 14.8649 23.4803 14.885 23.5815C14.905 23.6827 14.9547 23.7756 15.0276 23.8486C15.1006 23.9215 15.1935 23.9712 15.2947 23.9912C15.3959 24.0113 15.5008 24.0009 15.5961 23.9613C15.6913 23.9217 15.7727 23.8547 15.8299 23.7689C15.887 23.683 15.9174 23.5821 15.9172 23.4789C15.9169 23.3411 15.862 23.209 15.7646 23.1116C15.6671 23.0142 15.5351 22.9593 15.3973 22.959Z" fill="#2D3748"/>
</g>
<defs>
<clipPath id="clip0_80_8964">
<rect width="22.3124" height="24" fill="white"/>
</clipPath>
</defs>
</svg>
