<svg width="22" height="24" viewBox="0 0 22 24" fill="none" xmlns="http://www.w3.org/2000/svg">
<g clip-path="url(#clip0_80_9067)">
<path d="M10.5923 4.53573V8.32663C10.5923 8.42344 10.6308 8.51628 10.6992 8.58473C10.7677 8.65318 10.8605 8.69164 10.9574 8.69164C11.0542 8.69164 11.147 8.65318 11.2155 8.58473C11.2839 8.51628 11.3224 8.42344 11.3224 8.32663V4.53573C11.8889 4.44398 12.4001 4.14226 12.7543 3.69062C13.1084 3.23899 13.2795 2.67053 13.2335 2.09845C13.1875 1.52637 12.9277 0.99261 12.506 0.603389C12.0842 0.214168 11.5313 -0.00195312 10.9574 -0.00195312C10.3834 -0.00195312 9.83053 0.214168 9.40875 0.603389C8.98696 0.99261 8.7272 1.52637 8.68119 2.09845C8.63517 2.67053 8.80625 3.23899 9.1604 3.69062C9.51455 4.14226 10.0258 4.44398 10.5923 4.53573ZM10.9574 0.729853C11.265 0.729607 11.5657 0.820616 11.8216 0.991358C12.0774 1.1621 12.2769 1.4049 12.3947 1.68904C12.5126 1.97318 12.5435 2.28587 12.4835 2.58758C12.4236 2.88928 12.2755 3.16645 12.0579 3.38395C11.8404 3.60146 11.5633 3.74957 11.2616 3.80952C10.9599 3.86947 10.6472 3.83856 10.3631 3.72074C10.0789 3.60291 9.8361 3.40344 9.66536 3.14757C9.49461 2.89171 9.4036 2.59094 9.40385 2.28334C9.40451 1.87153 9.56841 1.47678 9.8596 1.18559C10.1508 0.894392 10.5455 0.730512 10.9574 0.729853Z" fill="#2D3748"/>
<path d="M7.98226 6.42217L9.39497 5.55012C9.43587 5.52485 9.47139 5.49177 9.4995 5.45277C9.52762 5.41376 9.54778 5.3696 9.55883 5.32281C9.56987 5.27601 9.57159 5.2275 9.56389 5.18004C9.55619 5.13258 9.53921 5.08711 9.51393 5.04622C9.48866 5.00532 9.45558 4.96979 9.41658 4.94168C9.37757 4.91357 9.33341 4.89339 9.28662 4.88234C9.23982 4.87129 9.19132 4.86959 9.14387 4.87729C9.09641 4.88499 9.05093 4.90196 9.01003 4.92723L7.59855 5.79928C7.31741 5.97193 7.08542 6.21399 6.92485 6.50219C6.76427 6.79039 6.68052 7.11504 6.68165 7.44495C6.68341 7.86122 6.81853 8.26595 7.06717 8.5998C7.31582 8.93364 7.66492 9.17903 8.06323 9.29994C8.09705 9.31079 8.13236 9.31624 8.16788 9.31612C8.25574 9.31643 8.34077 9.28502 8.40735 9.22768C8.47392 9.17033 8.51757 9.09092 8.5303 9.00398C8.54302 8.91704 8.52395 8.82841 8.4766 8.7544C8.42925 8.68038 8.35679 8.62593 8.27252 8.60104C8.0244 8.5255 7.80699 8.37253 7.65209 8.1645C7.49719 7.95648 7.41293 7.70431 7.41168 7.44495C7.4111 7.23986 7.46328 7.03807 7.5632 6.85896C7.66312 6.67984 7.80743 6.52942 7.98226 6.42217Z" fill="#2D3748"/>
<path d="M15.2339 7.43974C15.235 7.10983 15.1513 6.78518 14.9907 6.49698C14.8301 6.20878 14.5981 5.96672 14.317 5.79407L12.9043 4.92202C12.8217 4.87114 12.7222 4.85516 12.6278 4.87759C12.5335 4.90002 12.4518 4.95901 12.401 5.04161C12.3501 5.12421 12.3341 5.22367 12.3565 5.31805C12.379 5.41244 12.438 5.49403 12.5206 5.54491L13.932 6.41696C14.1072 6.52426 14.2518 6.67483 14.3519 6.85417C14.4521 7.03351 14.5044 7.23559 14.5038 7.44099C14.5026 7.70035 14.4183 7.95251 14.2635 8.16054C14.1086 8.36857 13.8911 8.52154 13.643 8.59708L7.78783 10.3412C7.45558 10.4407 7.16646 10.6491 6.96694 10.9328C6.76742 11.2165 6.6691 11.5591 6.68779 11.9055C6.70648 12.2518 6.84109 12.5818 7.06998 12.8424C7.29887 13.103 7.60875 13.2791 7.94979 13.3423L8.93644 13.5229L8.68728 13.5702C8.44982 13.6133 8.22748 13.7169 8.04172 13.871C7.85595 14.025 7.71303 14.2244 7.62675 14.4498C7.54048 14.6752 7.51375 14.919 7.54917 15.1577C7.58458 15.3965 7.68095 15.622 7.82895 15.8126C7.86286 15.8571 7.9066 15.893 7.95675 15.9177C8.0069 15.9423 8.06209 15.955 8.11797 15.9547C8.18628 15.9549 8.25327 15.936 8.3113 15.8999C8.36932 15.8639 8.41602 15.8122 8.44605 15.7508C8.47608 15.6895 8.48823 15.6209 8.4811 15.553C8.47397 15.485 8.44786 15.4205 8.40575 15.3667C8.33538 15.275 8.28969 15.1669 8.27308 15.0525C8.25647 14.9382 8.26948 14.8215 8.31085 14.7136C8.35223 14.6058 8.42059 14.5103 8.5094 14.4364C8.59821 14.3625 8.7045 14.3126 8.81809 14.2915L10.5983 13.9652V15.0178C10.5983 15.1147 10.6368 15.2075 10.7052 15.2759C10.7737 15.3444 10.8665 15.3829 10.9633 15.3829C11.0601 15.3829 11.153 15.3444 11.2214 15.2759C11.2899 15.2075 11.3283 15.1147 11.3283 15.0178V13.9602L13.1086 14.2866C13.2648 14.3146 13.4061 14.3969 13.5076 14.519C13.6091 14.641 13.6643 14.795 13.6634 14.9537C13.6625 15.1125 13.6056 15.2658 13.5027 15.3867C13.3999 15.5076 13.2576 15.5883 13.1011 15.6146L8.55274 16.3944C8.21694 16.4529 7.91266 16.6283 7.69374 16.8896C7.47483 17.1508 7.35539 17.4811 7.35658 17.822C7.35777 18.1628 7.47953 18.4923 7.70027 18.752C7.92101 19.0117 8.2265 19.1849 8.5627 19.241L9.02615 19.317C8.8554 19.4341 8.72158 19.5974 8.64044 19.7878C8.5593 19.9783 8.5342 20.1879 8.56809 20.3921C8.60197 20.5964 8.69344 20.7867 8.83174 20.9407C8.97003 21.0947 9.1494 21.2061 9.3488 21.2617L10.5946 21.6105V23.6324C10.5946 23.7292 10.633 23.8221 10.7015 23.8906C10.7699 23.959 10.8628 23.9975 10.9596 23.9975C11.0564 23.9975 11.1492 23.959 11.2177 23.8906C11.2862 23.8221 11.3246 23.7292 11.3246 23.6324V21.6105L12.5704 21.2617C12.8084 21.195 13.0166 21.0492 13.1605 20.8482C13.3045 20.6472 13.3756 20.4031 13.3621 20.1563C13.3485 19.9095 13.2513 19.6746 13.0863 19.4906C12.9213 19.3065 12.6984 19.1842 12.4545 19.1439L8.67358 18.521C8.50799 18.4922 8.35791 18.4058 8.24974 18.2772C8.14156 18.1485 8.08224 17.9858 8.08224 17.8178C8.08224 17.6497 8.14156 17.487 8.24974 17.3583C8.35791 17.2297 8.50799 17.1434 8.67358 17.1145L10.5958 16.7844V17.9056C10.5958 18.0024 10.6343 18.0952 10.7027 18.1637C10.7712 18.2321 10.864 18.2706 10.9608 18.2706C11.0576 18.2706 11.1505 18.2321 11.2189 18.1637C11.2874 18.0952 11.3259 18.0024 11.3259 17.9056V16.7844L13.2481 17.1145C13.382 17.1368 13.5068 17.1969 13.6078 17.2876C13.7088 17.3783 13.7818 17.496 13.8183 17.6268C13.8548 17.7576 13.8532 17.896 13.8138 18.0259C13.7744 18.1559 13.6987 18.2719 13.5957 18.3603C13.5572 18.391 13.5254 18.4292 13.5021 18.4725C13.4788 18.5158 13.4645 18.5634 13.4601 18.6124C13.4556 18.6614 13.4611 18.7108 13.4762 18.7576C13.4913 18.8044 13.5158 18.8477 13.548 18.8848C13.5803 18.9219 13.6197 18.9522 13.664 18.9737C13.7082 18.9952 13.7563 19.0075 13.8055 19.01C13.8546 19.0124 13.9037 19.0049 13.9499 18.9879C13.996 18.9708 14.0383 18.9447 14.0741 18.9109C14.2803 18.7317 14.4314 18.4976 14.5099 18.2358C14.5884 17.9741 14.5909 17.6955 14.5174 17.4323C14.4438 17.1692 14.2971 16.9323 14.0942 16.7493C13.8914 16.5662 13.6407 16.4445 13.3714 16.3982L13.1223 16.3558L13.2257 16.3371C13.5505 16.2812 13.8454 16.1127 14.0585 15.8613C14.2716 15.6098 14.3895 15.2914 14.3914 14.9617C14.3934 14.6321 14.2792 14.3123 14.0691 14.0583C13.8589 13.8044 13.5661 13.6325 13.2419 13.5727L8.08682 12.6272C7.90651 12.5942 7.74257 12.5014 7.62143 12.3638C7.5003 12.2262 7.42901 12.0518 7.41908 11.8688C7.40915 11.6857 7.46116 11.5047 7.5667 11.3548C7.67224 11.2049 7.82519 11.0949 8.00087 11.0426L10.5996 10.2677V12.0815C10.5996 12.1783 10.638 12.2712 10.7065 12.3396C10.7749 12.4081 10.8678 12.4466 10.9646 12.4466C11.0614 12.4466 11.1542 12.4081 11.2227 12.3396C11.2911 12.2712 11.3296 12.1783 11.3296 12.0815V10.264L13.9283 11.0426C14.104 11.0949 14.2569 11.2049 14.3625 11.3548C14.468 11.5047 14.52 11.6857 14.5101 11.8688C14.5001 12.0518 14.4289 12.2262 14.3077 12.3638C14.1866 12.5014 14.0226 12.5942 13.8423 12.6272C13.753 12.6439 13.6731 12.6933 13.6183 12.7658C13.5635 12.8383 13.5377 12.9287 13.546 13.0192C13.5542 13.1097 13.5959 13.1938 13.663 13.2552C13.73 13.3165 13.8175 13.3507 13.9084 13.351C13.9305 13.3507 13.9526 13.3486 13.9744 13.3448C14.3155 13.2817 14.6255 13.1058 14.8545 12.8453C15.0835 12.5848 15.2183 12.2548 15.2371 11.9084C15.2559 11.5621 15.1578 11.2195 14.9583 10.9357C14.7589 10.6519 14.4698 10.4433 14.1376 10.3437L12.2477 9.77683L13.8585 9.29598C14.2559 9.17391 14.6038 8.92785 14.8512 8.59386C15.0987 8.25986 15.2328 7.85543 15.2339 7.43974ZM12.6364 20.2177C12.6362 20.2955 12.6106 20.3711 12.5637 20.4331C12.5167 20.4952 12.4509 20.5402 12.3761 20.5616L10.9571 20.9565L9.53816 20.5616C9.46014 20.5397 9.39186 20.4919 9.34454 20.4261C9.29722 20.3603 9.27367 20.2804 9.27772 20.1995C9.28177 20.1185 9.31321 20.0414 9.36687 19.9806C9.42052 19.9199 9.49322 19.8792 9.57305 19.8652L10.5921 19.7194V20.1654C10.5921 20.2622 10.6305 20.3551 10.699 20.4235C10.7674 20.492 10.8603 20.5304 10.9571 20.5304C11.0539 20.5304 11.1468 20.492 11.2152 20.4235C11.2837 20.3551 11.3221 20.2622 11.3221 20.1654V19.6983L12.3374 19.8652C12.4212 19.8786 12.4973 19.9215 12.5522 19.9861C12.607 20.0508 12.6369 20.133 12.6364 20.2177Z" fill="#2D3748"/>
<path d="M6.10143 8.19724H4.49063C4.40401 8.20267 4.3172 8.1903 4.23556 8.16089C4.15391 8.13148 4.07914 8.08566 4.01589 8.02625C3.95263 7.96683 3.90221 7.89509 3.86775 7.81544C3.83329 7.73579 3.81551 7.64991 3.81551 7.56312C3.81551 7.47634 3.83329 7.39048 3.86775 7.31083C3.90221 7.23119 3.95263 7.15945 4.01589 7.10003C4.07914 7.04062 4.15391 6.99479 4.23556 6.96539C4.3172 6.93598 4.40401 6.92361 4.49063 6.92904H5.46856C5.56537 6.92904 5.65822 6.89059 5.72668 6.82213C5.79513 6.75368 5.83358 6.66081 5.83358 6.564C5.83358 6.4672 5.79513 6.37436 5.72668 6.30591C5.65822 6.23745 5.56537 6.199 5.46856 6.199H4.49063H4.42335C4.41215 6.19832 4.40091 6.19832 4.38971 6.199H2.77892C2.69231 6.20443 2.6055 6.19206 2.52385 6.16265C2.4422 6.13324 2.36744 6.08742 2.30418 6.02801C2.24092 5.96859 2.19051 5.89685 2.15605 5.8172C2.12158 5.73755 2.10381 5.6517 2.10381 5.56491C2.10381 5.47813 2.12158 5.39224 2.15605 5.31259C2.19051 5.23295 2.24092 5.16121 2.30418 5.10179C2.36744 5.04238 2.4422 4.99655 2.52385 4.96715C2.6055 4.93774 2.69231 4.92537 2.77892 4.9308H6.97471C7.07152 4.9308 7.16437 4.89235 7.23282 4.82389C7.30128 4.75544 7.33973 4.6626 7.33973 4.56579C7.33973 4.46899 7.30128 4.37612 7.23282 4.30767C7.16437 4.23921 7.07152 4.20076 6.97471 4.20076H1.39735C1.31074 4.20619 1.22392 4.19382 1.14227 4.16441C1.06062 4.135 0.98587 4.08918 0.922613 4.02977C0.859355 3.97035 0.808941 3.89861 0.774478 3.81896C0.740016 3.73931 0.722226 3.65346 0.722226 3.56667C0.722226 3.47989 0.740016 3.394 0.774478 3.31435C0.808941 3.23471 0.859355 3.16297 0.922613 3.10355C0.98587 3.04414 1.06062 2.99831 1.14227 2.96891C1.22392 2.9395 1.31074 2.92713 1.39735 2.93256H7.47179C7.5686 2.93256 7.66144 2.89411 7.72989 2.82565C7.79834 2.7572 7.8368 2.66436 7.8368 2.56755C7.8368 2.47075 7.79834 2.37791 7.72989 2.30946C7.66144 2.241 7.5686 2.20252 7.47179 2.20252H1.39735C1.20726 2.18433 1.01546 2.20608 0.834258 2.26636C0.653059 2.32664 0.486461 2.42415 0.345146 2.55259C0.203831 2.68103 0.0909209 2.83758 0.0136567 3.01222C-0.0636075 3.18685 -0.103516 3.37571 -0.103516 3.56667C-0.103516 3.75764 -0.0636075 3.94647 0.0136567 4.1211C0.0909209 4.29574 0.203831 4.45232 0.345146 4.58076C0.486461 4.7092 0.653059 4.80668 0.834258 4.86696C1.01546 4.92724 1.20726 4.94899 1.39735 4.9308H1.5431C1.4376 5.1255 1.38237 5.34347 1.38241 5.56491C1.38387 5.74666 1.42118 5.92634 1.4922 6.09364C1.56322 6.26095 1.66656 6.41259 1.79629 6.53989C1.92602 6.66718 2.07959 6.76764 2.2482 6.83548C2.41682 6.90333 2.59718 6.93725 2.77892 6.93528H3.25481C3.1493 7.12997 3.09407 7.34791 3.09411 7.56936C3.09557 7.75111 3.13288 7.93078 3.20391 8.09809C3.27493 8.26539 3.37826 8.41706 3.50799 8.54436C3.63772 8.67166 3.7913 8.77208 3.95992 8.83993C4.12854 8.90778 4.30888 8.94169 4.49063 8.93972H6.10143C6.19824 8.93972 6.29108 8.90127 6.35953 8.83281C6.42798 8.76436 6.46644 8.67152 6.46644 8.57471C6.46644 8.47791 6.42798 8.38507 6.35953 8.31662C6.29108 8.24816 6.19824 8.20971 6.10143 8.20971V8.19724Z" fill="#2D3748"/>
<path d="M21.9759 3.56688C21.9713 3.20089 21.8217 2.85168 21.5598 2.59592C21.298 2.34016 20.9454 2.19873 20.5794 2.20272H14.5037C14.4069 2.20272 14.314 2.2412 14.2456 2.30966C14.1771 2.37811 14.1387 2.47095 14.1387 2.56776C14.1387 2.66456 14.1771 2.7574 14.2456 2.82585C14.314 2.89431 14.4069 2.93276 14.5037 2.93276H20.5794C20.666 2.92733 20.7528 2.9397 20.8345 2.96911C20.9161 2.99852 20.9909 3.04434 21.0541 3.10375C21.1174 3.16317 21.1678 3.23491 21.2023 3.31456C21.2367 3.3942 21.2545 3.48009 21.2545 3.56688C21.2545 3.65366 21.2367 3.73952 21.2023 3.81916C21.1678 3.89881 21.1174 3.97055 21.0541 4.02997C20.9909 4.08938 20.9161 4.1352 20.8345 4.16461C20.7528 4.19402 20.666 4.20639 20.5794 4.20096H15.002C14.9052 4.20096 14.8124 4.23941 14.7439 4.30787C14.6755 4.37632 14.637 4.46919 14.637 4.56599C14.637 4.6628 14.6755 4.75564 14.7439 4.82409C14.8124 4.89255 14.9052 4.931 15.002 4.931H19.1966C19.2832 4.92557 19.37 4.93794 19.4516 4.96735C19.5333 4.99676 19.608 5.04258 19.6713 5.10199C19.7346 5.16141 19.785 5.23315 19.8194 5.3128C19.8539 5.39244 19.8717 5.47833 19.8717 5.56511C19.8717 5.6519 19.8539 5.73776 19.8194 5.8174C19.785 5.89705 19.7346 5.96879 19.6713 6.02821C19.608 6.08762 19.5333 6.13344 19.4516 6.16285C19.37 6.19226 19.2832 6.20463 19.1966 6.1992H17.5858C17.575 6.19852 17.5642 6.19852 17.5534 6.1992C17.5297 6.1992 17.5085 6.1992 17.4848 6.1992H16.5069C16.4101 6.1992 16.3173 6.23765 16.2488 6.30611C16.1804 6.37456 16.1419 6.4674 16.1419 6.5642C16.1419 6.66101 16.1804 6.75388 16.2488 6.82233C16.3173 6.89079 16.4101 6.92924 16.5069 6.92924H17.4848C17.5715 6.92381 17.6583 6.93618 17.7399 6.96559C17.8216 6.995 17.8963 7.04082 17.9596 7.10023C18.0228 7.15965 18.0733 7.23139 18.1077 7.31104C18.1422 7.39068 18.16 7.47654 18.16 7.56332C18.16 7.65011 18.1422 7.736 18.1077 7.81564C18.0733 7.89529 18.0228 7.96703 17.9596 8.02645C17.8963 8.08586 17.8216 8.13168 17.7399 8.16109C17.6583 8.1905 17.5715 8.20287 17.4848 8.19744H15.8741C15.7772 8.19744 15.6844 8.23589 15.616 8.30435C15.5475 8.3728 15.509 8.46564 15.509 8.56244C15.509 8.65925 15.5475 8.75209 15.616 8.82054C15.6844 8.889 15.7772 8.92748 15.8741 8.92748H17.4848C17.6667 8.92945 17.8471 8.89555 18.0158 8.82772C18.1844 8.75989 18.3381 8.65944 18.4679 8.53215C18.5978 8.40487 18.7012 8.25325 18.7724 8.08594C18.8435 7.91863 18.881 7.73893 18.8826 7.55712C18.8828 7.3355 18.8271 7.1174 18.7207 6.92301H19.1966C19.3784 6.92498 19.5588 6.89108 19.7275 6.82325C19.8962 6.75541 20.0498 6.65499 20.1796 6.52771C20.3095 6.40042 20.4129 6.24878 20.4841 6.08146C20.5552 5.91415 20.5927 5.73445 20.5943 5.55264C20.5945 5.33102 20.5388 5.11292 20.4324 4.91853H20.5794C20.9433 4.92255 21.294 4.78285 21.5555 4.52977C21.817 4.27669 21.9681 3.93069 21.9759 3.56688Z" fill="#2D3748"/>
</g>
<defs>
<clipPath id="clip0_80_9067">
<rect width="21.9769" height="24" fill="white"/>
</clipPath>
</defs>
</svg>
