<svg width="28" height="24" viewBox="0 0 28 24" fill="none" xmlns="http://www.w3.org/2000/svg">
<g clip-path="url(#clip0_80_9016)">
<path d="M9.28174 17.8804C9.17206 17.8804 9.06689 17.9239 8.98934 18.0015C8.91179 18.079 8.86822 18.1842 8.86822 18.2939V22.3836C8.86822 22.4871 8.84784 22.5896 8.80823 22.6853C8.76863 22.7809 8.71057 22.8678 8.63739 22.9409C8.5642 23.0141 8.47729 23.0722 8.38167 23.1118C8.28605 23.1514 8.18356 23.1718 8.08006 23.1718C7.97656 23.1718 7.87408 23.1514 7.77846 23.1118C7.68284 23.0722 7.59596 23.0141 7.52278 22.9409C7.44959 22.8678 7.39154 22.7809 7.35193 22.6853C7.31232 22.5896 7.29194 22.4871 7.29194 22.3836V20.5617C7.29194 20.452 7.24837 20.3468 7.17082 20.2692C7.09327 20.1917 6.98807 20.1481 6.87839 20.1481C6.76872 20.1481 6.66352 20.1917 6.58596 20.2692C6.50841 20.3468 6.46484 20.452 6.46484 20.5617V22.3836C6.46484 22.812 6.63504 23.2229 6.93795 23.5258C7.24087 23.8287 7.65168 23.9989 8.08006 23.9989C8.50845 23.9989 8.9193 23.8287 9.22221 23.5258C9.52512 23.2229 9.69529 22.812 9.69529 22.3836V18.2939C9.69529 18.1842 9.65172 18.079 9.57416 18.0015C9.49661 17.9239 9.39141 17.8804 9.28174 17.8804Z" fill="#2D3748"/>
<path d="M19.6333 14.9102C19.5236 14.9102 19.4184 14.9537 19.3409 15.0313C19.2633 15.1088 19.2197 15.214 19.2197 15.3237V22.0705C19.2197 22.174 19.1994 22.2765 19.1598 22.3721C19.1202 22.4678 19.0621 22.5547 18.9889 22.6278C18.9157 22.701 18.8289 22.7591 18.7332 22.7987C18.6376 22.8383 18.5351 22.8587 18.4316 22.8587C18.3281 22.8587 18.2256 22.8383 18.13 22.7987C18.0344 22.7591 17.9475 22.701 17.8743 22.6278C17.8011 22.5547 17.7431 22.4678 17.7035 22.3721C17.6638 22.2765 17.6435 22.174 17.6435 22.0705V20.2486C17.6435 20.1389 17.5999 20.0337 17.5223 19.9562C17.4448 19.8786 17.3396 19.835 17.23 19.835C17.1203 19.835 17.0151 19.8786 16.9375 19.9562C16.86 20.0337 16.8164 20.1389 16.8164 20.2486V22.0705C16.8164 22.4989 16.9866 22.9098 17.2895 23.2127C17.5924 23.5156 18.0032 23.6858 18.4316 23.6858C18.86 23.6858 19.2708 23.5156 19.5737 23.2127C19.8766 22.9098 20.0468 22.4989 20.0468 22.0705V15.3237C20.0468 15.2694 20.0361 15.2156 20.0153 15.1654C19.9946 15.1153 19.9641 15.0697 19.9257 15.0313C19.8873 14.9929 19.8417 14.9624 19.7916 14.9416C19.7414 14.9209 19.6876 14.9102 19.6333 14.9102Z" fill="#2D3748"/>
<path d="M22.3477 10.948C22.2874 10.8563 22.1932 10.7923 22.0857 10.7699C21.9783 10.7475 21.8663 10.7686 21.7744 10.8285C18.9548 12.676 16.1849 13.6132 13.5305 13.6132C10.7512 13.6132 7.85105 12.5915 4.90929 10.5761C4.81866 10.5142 4.70712 10.4908 4.59923 10.511C4.49133 10.5313 4.3959 10.5936 4.33394 10.6842C4.27198 10.7748 4.24857 10.8864 4.26884 10.9943C4.28911 11.1022 4.35142 11.1976 4.44205 11.2596C7.52345 13.3702 10.582 14.4403 13.5305 14.4403C16.3501 14.4403 19.2757 13.4575 22.2282 11.52C22.3198 11.46 22.3839 11.366 22.4063 11.2587C22.4287 11.1515 22.4076 11.0398 22.3477 10.948Z" fill="#2D3748"/>
<path d="M26.9622 6.94972C25.7861 5.65548 24.4733 4.49224 23.047 3.48029C21.9259 2.67163 20.7294 1.9729 19.4742 1.3938C19.4401 1.37211 19.403 1.35538 19.3641 1.34412C17.6321 0.569409 15.6423 0.00146484 13.5316 0.00146484C11.2008 0.00146484 9.01758 0.694274 7.16606 1.59385C7.13019 1.6063 7.09594 1.62298 7.06402 1.64353C5.99951 2.17262 4.97977 2.78735 4.01485 3.48164C2.58911 4.49381 1.2769 5.65703 0.101013 6.95106C0.0370871 7.02593 0.00195312 7.12115 0.00195312 7.21959C0.00195312 7.31804 0.0370871 7.41326 0.101013 7.48812C0.747785 8.20873 1.44215 8.88517 2.17944 9.51286V16.2705C2.17944 16.6988 2.34961 17.1097 2.65252 17.4126C2.95543 17.7155 3.36628 17.8857 3.79466 17.8857C4.22305 17.8857 4.63386 17.7155 4.93678 17.4126C5.23969 17.1097 5.40989 16.6988 5.40989 16.2705V13.7664C5.40989 13.6567 5.36632 13.5515 5.28876 13.474C5.21121 13.3964 5.10601 13.3529 4.99634 13.3529C4.88666 13.3529 4.78146 13.3964 4.70391 13.474C4.62636 13.5515 4.58279 13.6567 4.58279 13.7664V16.2705C4.58279 16.4795 4.49976 16.6799 4.35195 16.8278C4.20415 16.9756 4.00369 17.0586 3.79466 17.0586C3.58564 17.0586 3.38518 16.9756 3.23738 16.8278C3.08957 16.6799 3.00651 16.4795 3.00651 16.2705V9.3222C3.00648 9.26233 2.99337 9.20319 2.96809 9.14892C2.94281 9.09465 2.90599 9.04656 2.86018 9.00802C2.19867 8.44687 1.56846 7.84983 0.972397 7.21959C2.04767 6.08881 3.22728 5.06205 4.49553 4.15297C5.13031 3.69716 5.78916 3.27585 6.46923 2.89087C6.11746 3.98425 6.03175 5.14581 6.21922 6.27898C6.40668 7.41215 6.86191 8.48421 7.54706 9.40605C8.2322 10.3279 9.12746 11.0729 10.1585 11.5791C11.1894 12.0853 12.3264 12.3382 13.4748 12.3166C14.6231 12.295 15.7498 11.9997 16.761 11.4551C17.7723 10.9105 18.639 10.1324 19.289 9.18547C19.9391 8.23855 20.3537 7.15015 20.4985 6.01074C20.6432 4.87133 20.5139 3.71381 20.1214 2.63441C20.9625 3.08238 21.773 3.58565 22.5475 4.14089C23.8237 5.05635 25.0105 6.09032 26.0922 7.229C25.4364 7.94729 24.7326 8.62017 23.9855 9.24299C23.939 9.28195 23.9015 9.33062 23.8758 9.38559C23.85 9.44056 23.8366 9.5005 23.8365 9.5612V16.7525C23.8365 16.9615 23.7535 17.162 23.6057 17.3098C23.4579 17.4576 23.2574 17.5406 23.0484 17.5406C22.8393 17.5406 22.6389 17.4576 22.4911 17.3098C22.3433 17.162 22.2602 16.9615 22.2602 16.7525V14.9305C22.2602 14.8208 22.2167 14.7156 22.1391 14.6381C22.0616 14.5605 21.9564 14.5169 21.8467 14.5169C21.737 14.5169 21.6318 14.5605 21.5543 14.6381C21.4767 14.7156 21.4331 14.8208 21.4331 14.9305V16.7525C21.4331 17.1808 21.6033 17.5917 21.9062 17.8946C22.2092 18.1975 22.62 18.3677 23.0484 18.3677C23.4767 18.3677 23.8876 18.1975 24.1905 17.8946C24.4934 17.5917 24.6636 17.1808 24.6636 16.7525V9.75319C25.4897 9.06013 26.2597 8.30275 26.9663 7.48812C27.0297 7.41256 27.0641 7.31686 27.0634 7.21818C27.0627 7.11951 27.0268 7.02432 26.9622 6.94972ZM19.732 5.10894C19.7443 5.95611 19.588 6.79727 19.2723 7.58351C18.9566 8.36975 18.4878 9.08538 17.893 9.68881C17.2983 10.2922 16.5895 10.7714 15.8079 11.0985C15.0264 11.4255 14.1875 11.594 13.3403 11.594C12.493 11.594 11.6542 11.4255 10.8726 11.0985C10.091 10.7714 9.38228 10.2922 8.78754 9.68881C8.1928 9.08538 7.72394 8.36975 7.40824 7.58351C7.09253 6.79727 6.93629 5.95611 6.94857 5.10894C6.94595 4.13698 7.1679 3.17755 7.59708 2.30547C9.34253 1.46899 11.3726 0.828546 13.5316 0.828546C15.4852 0.828546 17.338 1.35218 18.9627 2.07185C19.4675 3.00456 19.7319 4.04837 19.732 5.10894Z" fill="#2D3748"/>
<path d="M13.34 2.155C12.7882 2.15438 12.2473 2.30833 11.7785 2.59939C11.3097 2.89046 10.9319 3.30701 10.6877 3.80184C10.4436 4.29667 10.3429 4.85 10.3971 5.39911C10.4513 5.94822 10.6583 6.47116 10.9945 6.90868C11.3307 7.3462 11.7827 7.68081 12.2994 7.87457C12.816 8.06833 13.3766 8.11353 13.9177 8.005C14.4587 7.89647 14.9584 7.63857 15.3604 7.26054C15.7623 6.88251 16.0504 6.39945 16.1918 5.86611C16.3279 5.89358 16.4664 5.90751 16.6053 5.90772C17.1473 5.90737 17.667 5.692 18.0504 5.30888C18.4338 4.92576 18.6495 4.40619 18.6502 3.8642C18.6502 3.75452 18.6066 3.64934 18.5291 3.57179C18.4515 3.49424 18.3464 3.45067 18.2367 3.45067C18.127 3.45067 18.0218 3.49424 17.9442 3.57179C17.8667 3.64934 17.8231 3.75452 17.8231 3.8642C17.8231 4.10506 17.7517 4.34051 17.6179 4.54077C17.4841 4.74104 17.2939 4.89713 17.0714 4.9893C16.8488 5.08147 16.604 5.10558 16.3677 5.05859C16.1315 5.01161 15.9145 4.89562 15.7442 4.72531C15.5739 4.555 15.4579 4.33802 15.4109 4.10179C15.3639 3.86556 15.3881 3.62069 15.4802 3.39817C15.5724 3.17565 15.7285 2.98546 15.9288 2.85165C16.129 2.71784 16.3645 2.64642 16.6053 2.64642C16.715 2.64642 16.8202 2.60285 16.8978 2.5253C16.9753 2.44774 17.0189 2.34255 17.0189 2.23287C17.0189 2.12319 16.9753 2.01801 16.8978 1.94046C16.8202 1.8629 16.715 1.81934 16.6053 1.81934C16.2865 1.81964 15.9721 1.89462 15.6874 2.03824C15.4027 2.18186 15.1557 2.39014 14.9659 2.64642C14.484 2.32652 13.9185 2.1556 13.34 2.155ZM15.4238 5.5291C15.332 5.98087 15.096 6.3906 14.7512 6.69658C14.4064 7.00256 13.9715 7.18823 13.512 7.22561C13.0526 7.263 12.5934 7.15007 12.2037 6.90385C11.8139 6.65763 11.5147 6.29145 11.3512 5.86045C11.1876 5.42945 11.1685 4.95698 11.2967 4.51419C11.425 4.0714 11.6936 3.68225 12.0622 3.40538C12.4308 3.12851 12.8794 2.97889 13.3404 2.97907C13.8014 2.97924 14.2498 3.1292 14.6182 3.40635C14.5251 3.80017 14.5521 4.21284 14.6957 4.59117C14.8393 4.96951 15.0929 5.29618 15.4238 5.5291Z" fill="#2D3748"/>
</g>
<defs>
<clipPath id="clip0_80_9016">
<rect width="27.0613" height="24" fill="white"/>
</clipPath>
</defs>
</svg>
