<svg width="24" height="24" viewBox="0 0 24 24" fill="none" xmlns="http://www.w3.org/2000/svg">
<g clip-path="url(#clip0_80_9004)">
<path d="M22.8651 22.3555L15.1115 19.6828L14.8508 16.7899C14.9328 16.6149 14.9879 16.4754 15.0172 16.3934C15.5557 15.7632 16.3523 14.5578 16.4674 13.6645L16.5457 13.0526C16.6068 12.5672 16.7659 12.0993 17.0132 11.6771C17.067 11.5829 17.1172 11.4874 17.1637 11.3895C17.1736 11.3717 17.1826 11.3533 17.1906 11.3345C17.6238 10.3971 17.718 9.27001 17.4696 7.97652C17.7729 7.26351 17.9926 6.51778 18.1243 5.75421C18.4192 3.9957 18.0827 2.57249 17.1453 1.63877C16.2887 0.782155 15.4015 0.718523 14.8055 0.815198C14.5198 0.863032 14.243 0.953794 13.9844 1.08442C13.178 0.394225 11.6507 -0.272714 8.8288 0.120107H8.8141C7.51694 0.352618 6.46448 0.285312 6.23319 0.0895134C6.16736 0.033975 6.08448 0.00274117 5.99837 0.0010491C5.91225 -0.000642971 5.82816 0.0273125 5.76019 0.0802218C5.69223 0.133131 5.64451 0.207789 5.62503 0.291687C5.60555 0.375586 5.61548 0.463635 5.65317 0.541081L6.0203 1.29857C5.74495 1.34507 5.28605 1.33406 4.67418 1.02935L4.65703 1.022L4.62034 1.00854L4.5824 0.998759H4.56406H4.54816H4.50896H4.47228H4.43798L4.40003 1.00732L4.36944 1.01833L4.33401 1.03424L4.30461 1.0526C4.29414 1.05852 4.28428 1.0655 4.27521 1.07341C4.26567 1.08091 4.2567 1.08909 4.24832 1.09787C4.23884 1.10592 4.23023 1.11494 4.22263 1.12479C4.21503 1.13367 4.20809 1.14309 4.20183 1.15295C4.19327 1.16397 4.18713 1.17497 4.17979 1.18598L4.17124 1.20066C4.17124 1.20066 4.17121 1.21168 4.16509 1.2178C4.15987 1.22975 4.15539 1.24202 4.15164 1.25452C4.14766 1.26697 4.14438 1.27962 4.14184 1.29245C4.14184 1.29245 4.14184 1.30346 4.14184 1.30958C4.00185 2.20679 4.00599 3.12059 4.15409 4.01649C4.3401 5.06034 4.74268 5.91451 5.34843 6.55575C5.47489 6.68726 5.61023 6.80992 5.7535 6.92288V9.59554C5.75451 10.1438 5.85787 10.6871 6.05824 11.1974C6.05824 11.2109 6.06801 11.2256 6.07413 11.239C6.11819 11.3479 6.16468 11.4556 6.2173 11.5609L6.30908 11.7456C6.49358 12.1125 6.61404 12.5081 6.66521 12.9155L6.76063 13.662C6.87322 14.5505 7.69068 15.7509 8.13734 16.3029C8.16182 16.3591 8.20342 16.4522 8.25972 16.5696L8.00152 19.6816L0.249119 22.353C0.160423 22.3781 0.0840816 22.435 0.034726 22.5129C-0.0146296 22.5907 -0.0334876 22.684 -0.0183346 22.7749C-0.00318152 22.8659 0.0449516 22.948 0.116886 23.0056C0.188821 23.0632 0.279459 23.0923 0.371493 23.0873C0.41307 23.0874 0.454389 23.0807 0.493867 23.0677L7.22444 20.7426C7.32785 21.2356 7.51808 21.7063 7.78617 22.1328C8.76517 23.6734 10.4392 23.9965 11.6715 23.9965C13.0691 23.9965 14.1606 23.6049 14.9157 22.8315C15.4574 22.2589 15.8073 21.5318 15.9167 20.7511L22.6167 23.0603C22.6561 23.0734 22.6975 23.08 22.739 23.0799C22.8311 23.085 22.9217 23.0559 22.9937 22.9983C23.0656 22.9406 23.1137 22.8585 23.1289 22.7676C23.144 22.6767 23.1252 22.5834 23.0758 22.5055C23.0265 22.4277 22.9501 22.3708 22.8614 22.3457L22.8651 22.3555ZM16.7696 8.32529C16.8516 8.80038 16.8729 9.28395 16.8332 9.76441L16.4368 8.33508C16.5445 8.33385 16.6546 8.33141 16.7696 8.32529ZM4.83079 1.90188C6.02516 2.30571 6.73004 1.84191 6.76308 1.81866C6.83717 1.76746 6.89035 1.69128 6.91282 1.60407C6.9353 1.51687 6.92556 1.42448 6.88546 1.34385L6.71415 0.992635C7.03964 1.02277 7.36705 1.02645 7.69314 1.00364C8.1126 0.977234 8.53043 0.929456 8.94502 0.860476C10.2263 0.68181 12.0044 0.640192 13.222 1.44664C13.9244 1.91288 14.108 2.44155 14.1178 2.46847C14.1417 2.54459 14.1892 2.61111 14.2535 2.65841C14.3177 2.70572 14.3953 2.73133 14.4751 2.73157C14.5124 2.73126 14.5495 2.72548 14.5852 2.71443C14.6797 2.6846 14.7586 2.61853 14.8045 2.53068C14.8503 2.44282 14.8595 2.34035 14.83 2.24574C14.7572 2.03771 14.6537 1.84177 14.5228 1.66447C14.6537 1.61389 14.7894 1.57698 14.9279 1.55433C15.5398 1.45398 16.11 1.65957 16.6154 2.1662C18.2161 3.77297 17.1441 6.77481 16.8185 7.57147C15.4516 7.6559 14.7003 7.38056 14.305 7.12602C13.8828 6.85435 13.7874 6.56188 13.7837 6.54964V6.55698L13.4925 6.63408C14.797 5.71994 14.8386 4.63693 14.8386 4.56595L14.4628 4.55862L14.0884 4.54516C14.0884 4.56718 14.0566 5.06892 13.5133 5.63061C12.5612 6.60961 10.8296 6.96449 9.54464 7.08687C7.91829 7.24106 6.68722 6.88862 5.88322 6.03934C4.75493 4.83273 4.74146 2.91636 4.83079 1.90188ZM7.34806 7.69874L6.51224 9.80969C6.51224 9.73871 6.50615 9.66773 6.50615 9.59797V7.39524C6.77597 7.52421 7.05801 7.62589 7.34806 7.69874ZM7.50713 13.5727L7.4129 12.8262C7.34989 12.3355 7.20471 11.8589 6.98339 11.4165L6.89161 11.2317C6.86591 11.1803 6.84262 11.1289 6.81937 11.0775L8.1031 7.83702C8.34696 7.8634 8.59207 7.87647 8.83735 7.87618C9.09188 7.87618 9.35577 7.86354 9.62907 7.83825C11.2309 7.68528 12.3422 7.31815 13.1119 6.8825C13.2624 7.2227 13.8277 8.12215 15.6474 8.30693L16.4417 11.1582C16.416 11.206 16.3915 11.2537 16.3645 11.3002C16.066 11.8094 15.874 12.3739 15.8004 12.9596L15.7221 13.5715C15.6315 14.2849 14.8973 15.3961 14.4041 15.9565C14.3706 15.9952 14.3453 16.0401 14.3295 16.0887C14.3221 16.1119 13.5842 18.3392 11.6837 18.3392C9.78327 18.3392 8.82386 15.9994 8.8153 15.9761C8.80012 15.9393 8.77997 15.9047 8.75537 15.8733C8.31849 15.3447 7.59524 14.2531 7.50713 13.569V13.5727ZM14.3748 22.3212C13.7629 22.9331 12.8585 23.2537 11.6752 23.2537C8.7064 23.2537 8.07495 21.2517 7.94279 20.504L8.48247 20.318C8.55119 20.2938 8.61147 20.2504 8.65618 20.1929C8.70088 20.1354 8.72812 20.0662 8.73457 19.9937L8.93158 17.6171C8.94137 17.6282 8.94993 17.6404 8.95972 17.6526C9.72701 18.5937 10.6729 19.0905 11.6837 19.0905C12.8487 19.0905 13.6589 18.486 14.1912 17.8399L14.3858 19.9961C14.3922 20.0684 14.4195 20.1372 14.4642 20.1943C14.509 20.2514 14.5693 20.2944 14.6379 20.318L15.1947 20.5101C15.1269 21.1861 14.8388 21.8212 14.3748 22.3175V22.3212Z" fill="#2D3748"/>
<path d="M8.94544 10.5486C8.94488 10.6564 8.9713 10.7626 9.02228 10.8576C9.07326 10.9525 9.14719 11.0332 9.23733 11.0923C9.32747 11.1514 9.43095 11.187 9.53837 11.1959C9.64578 11.2048 9.75369 11.1867 9.85231 11.1432C9.95093 11.0997 10.0371 11.0322 10.103 10.9469C10.1688 10.8616 10.2123 10.7611 10.2295 10.6547C10.2466 10.5483 10.2369 10.4393 10.2011 10.3376C10.1654 10.2359 10.1047 10.1448 10.0248 10.0726L10.3809 9.92572C10.4702 9.88579 10.5405 9.81258 10.5767 9.72166C10.6129 9.63074 10.6121 9.52928 10.5747 9.43888C10.5372 9.34848 10.4659 9.27626 10.376 9.2376C10.2861 9.19894 10.1847 9.19687 10.0933 9.23185L8.30542 9.9661C8.22437 9.9986 8.15721 10.0584 8.11559 10.1352C8.07396 10.2119 8.06048 10.3008 8.07747 10.3865C8.09445 10.4722 8.14086 10.5492 8.20862 10.6043C8.27639 10.6593 8.36127 10.689 8.44859 10.6881C8.49772 10.6884 8.5464 10.6788 8.59176 10.66L8.94789 10.5119C8.94789 10.529 8.94544 10.5388 8.94544 10.5486Z" fill="#2D3748"/>
<path d="M10.1221 14.9258C10.0938 14.9672 10.0741 15.0138 10.0642 15.0629C10.0542 15.112 10.0541 15.1625 10.064 15.2117C10.0738 15.2608 10.0934 15.3074 10.1216 15.3489C10.1497 15.3903 10.1859 15.4257 10.2279 15.4529C10.2699 15.4802 10.317 15.4988 10.3663 15.5076C10.4156 15.5164 10.4662 15.5152 10.5151 15.5042C10.5639 15.4932 10.6101 15.4725 10.6508 15.4434C10.6916 15.4142 10.7261 15.3772 10.7523 15.3346C10.8508 15.1817 10.9854 15.0557 11.1444 14.9676C11.3034 14.8795 11.4818 14.8321 11.6636 14.8297C11.8453 14.8273 12.0248 14.8699 12.1861 14.9537C12.3474 15.0375 12.4855 15.1599 12.588 15.3101C12.6459 15.388 12.7318 15.4405 12.8276 15.4565C12.9235 15.4725 13.0218 15.4507 13.1019 15.3958C13.182 15.3408 13.2377 15.257 13.2574 15.1618C13.277 15.0667 13.259 14.9676 13.2071 14.8855C13.0345 14.6332 12.8022 14.4275 12.5308 14.2867C12.2595 14.1459 11.9576 14.0743 11.652 14.0783C11.3463 14.0823 11.0464 14.1617 10.7788 14.3096C10.5113 14.4575 10.2844 14.6692 10.1184 14.9258H10.1221Z" fill="#2D3748"/>
<path d="M13.0175 9.92595L13.3724 10.0728C13.3053 10.1326 13.2517 10.206 13.215 10.288C13.1783 10.3701 13.1594 10.4589 13.1595 10.5488C13.1595 10.7202 13.2276 10.8845 13.3488 11.0057C13.4699 11.1269 13.6343 11.195 13.8056 11.195C13.977 11.195 14.1413 11.1269 14.2625 11.0057C14.3837 10.8845 14.4518 10.7202 14.4518 10.5488C14.4525 10.5386 14.4525 10.5284 14.4518 10.5182L14.8103 10.6663C14.8557 10.6852 14.9044 10.6948 14.9535 10.6945C15.04 10.6939 15.1238 10.6635 15.1905 10.6083C15.2572 10.5532 15.3028 10.4767 15.3196 10.3919C15.3364 10.307 15.3235 10.2189 15.2828 10.1425C15.2422 10.066 15.1765 10.006 15.0967 9.97245L13.3088 9.2382C13.2174 9.20322 13.116 9.20528 13.0261 9.24394C12.9362 9.2826 12.8649 9.35482 12.8275 9.44522C12.79 9.53562 12.7893 9.63708 12.8254 9.728C12.8616 9.81892 12.9319 9.89215 13.0213 9.93207L13.0175 9.92595Z" fill="#2D3748"/>
</g>
<defs>
<clipPath id="clip0_80_9004">
<rect width="23.1165" height="24" fill="white"/>
</clipPath>
</defs>
</svg>
