<svg width="22" height="24" viewBox="0 0 22 24" fill="none" xmlns="http://www.w3.org/2000/svg">
<g clip-path="url(#clip0_80_8942)">
<path d="M6.03828 11.2657L0.687678 6.24347C0.608762 6.16935 0.50364 6.12962 0.395429 6.13301C0.287218 6.13641 0.184791 6.18265 0.110674 6.26157C0.0365562 6.34048 -0.00319265 6.44562 0.000200717 6.55383C0.00359409 6.66204 0.0498531 6.76447 0.128769 6.83859L5.47937 11.8608C5.9943 12.3436 6.34473 12.9758 6.48132 13.6684C6.6179 14.3609 6.53373 15.0788 6.24067 15.721L2.729 23.4239C2.68572 23.5219 2.68267 23.633 2.72053 23.7333C2.75838 23.8336 2.83411 23.915 2.93139 23.96C2.98458 23.9836 3.04209 23.9959 3.10028 23.9962C3.17763 23.996 3.25328 23.9736 3.31818 23.9315C3.38308 23.8894 3.43447 23.8295 3.46619 23.7589L6.97785 16.0574C7.34152 15.2607 7.44648 14.37 7.27796 13.5106C7.10944 12.6512 6.6759 11.8661 6.03828 11.2657Z" fill="#1A202C"/>
<path d="M7.10614 0.184951C7.04696 0.0944818 6.95427 0.0312339 6.84845 0.00911414C6.74263 -0.0130056 6.63234 0.00781393 6.54187 0.0670011C6.4514 0.126188 6.38817 0.218888 6.36605 0.324711C6.34393 0.430534 6.36475 0.540807 6.42393 0.631276L11.9086 9.02311C12.6523 10.1548 13.0686 11.4701 13.1114 12.8236C13.1543 14.1771 12.8219 15.5161 12.1512 16.6925L8.35534 23.3942C8.30202 23.4882 8.28824 23.5995 8.31703 23.7037C8.34581 23.8079 8.41479 23.8964 8.50882 23.9497C8.60284 24.0031 8.71419 24.0168 8.81837 23.9881C8.92256 23.9593 9.01106 23.8903 9.06439 23.7963L12.8616 17.0946C13.6061 15.788 13.9751 14.301 13.9278 12.7979C13.8805 11.2948 13.4187 9.83398 12.5935 8.57677L7.10614 0.184951Z" fill="#1A202C"/>
<path d="M10.1871 11.0256C10.2252 11.0768 10.2748 11.1183 10.3318 11.1469C10.3888 11.1755 10.4517 11.1904 10.5155 11.1905C10.6029 11.1908 10.6881 11.1626 10.7581 11.1101C10.8017 11.0788 10.8386 11.039 10.8666 10.9932C10.8946 10.9474 10.9131 10.8964 10.9211 10.8434C10.9291 10.7903 10.9264 10.7361 10.9131 10.6841C10.8999 10.6321 10.8763 10.5832 10.8439 10.5404L4.00816 1.29214C3.94382 1.20505 3.8475 1.14708 3.74042 1.131C3.63334 1.11491 3.52427 1.14202 3.43718 1.20636C3.35009 1.2707 3.2921 1.367 3.27602 1.47408C3.25993 1.58116 3.28704 1.69025 3.35138 1.77734L10.1871 11.0256Z" fill="#1A202C"/>
<path d="M8.69281 11.811C8.72854 11.8508 8.77177 11.8833 8.82004 11.9064C8.86831 11.9296 8.92068 11.943 8.97413 11.9459C9.02759 11.9489 9.08109 11.9412 9.1316 11.9235C9.1821 11.9057 9.22861 11.8782 9.26848 11.8424C9.30834 11.8067 9.3408 11.7635 9.36396 11.7152C9.38712 11.667 9.40053 11.6146 9.40346 11.5611C9.40638 11.5077 9.39876 11.4542 9.38101 11.4037C9.36326 11.3532 9.33572 11.3067 9.29999 11.2668L2.31282 3.47006C2.24065 3.38955 2.13949 3.34099 2.03153 3.33508C1.92357 3.32917 1.81767 3.36641 1.73715 3.43857C1.65664 3.51073 1.60808 3.61191 1.60217 3.71987C1.59626 3.82783 1.63351 3.93371 1.70567 4.01423L8.69281 11.811Z" fill="#1A202C"/>
<path d="M9.44153 13.3109C9.33489 13.2963 9.22681 13.3247 9.1411 13.3898C9.05539 13.4549 8.99903 13.5514 8.98446 13.658C8.96988 13.7647 8.99828 13.8727 9.06338 13.9584C9.12849 14.0441 9.22497 14.1005 9.33161 14.1151L11.5257 14.414C11.544 14.4153 11.5624 14.4153 11.5807 14.414C11.6641 14.4143 11.7456 14.3886 11.8138 14.3406C11.882 14.2926 11.9335 14.2245 11.9613 14.1459C12.5765 12.5375 11.637 11.4907 11.5968 11.4465C11.5382 11.3819 11.4603 11.3381 11.3747 11.3217C11.2892 11.3052 11.2006 11.317 11.1223 11.3553L9.1413 12.2935C9.04354 12.3399 8.96819 12.4233 8.93187 12.5252C8.89555 12.6271 8.90122 12.7393 8.94761 12.8371C8.994 12.9348 9.07733 13.0101 9.17926 13.0465C9.28118 13.0828 9.39335 13.0771 9.49111 13.0307L11.1558 12.2386C11.3588 12.6432 11.4065 13.1081 11.2899 13.5454L9.44153 13.3109Z" fill="#1A202C"/>
<path d="M10.7036 14.7006C10.6558 14.676 10.6035 14.6612 10.5499 14.6571C10.4963 14.653 10.4424 14.6597 10.3914 14.6768C10.3404 14.6939 10.2933 14.7211 10.253 14.7567C10.2127 14.7924 10.18 14.8357 10.1567 14.8842L8.32988 18.5313L9.51605 14.8614C9.54947 14.7587 9.54072 14.6469 9.49171 14.5506C9.44269 14.4544 9.35743 14.3815 9.25469 14.3481C9.15196 14.3147 9.04016 14.3234 8.94389 14.3725C8.84762 14.4215 8.77478 14.5067 8.74137 14.6095L5.8784 23.4556C5.84548 23.5535 5.85149 23.6603 5.89515 23.7539C5.93882 23.8475 6.0168 23.9206 6.11296 23.9583C6.16168 23.979 6.21413 23.9895 6.26708 23.9891C6.34304 23.9896 6.41762 23.9686 6.48214 23.9286C6.54666 23.8885 6.59851 23.8309 6.63168 23.7626L10.8792 15.2367C10.9261 15.1422 10.934 15.033 10.9012 14.9327C10.8683 14.8324 10.7974 14.749 10.7036 14.7006Z" fill="#1A202C"/>
<path d="M15.7968 9.53377C15.8704 9.53366 15.9427 9.51375 16.0059 9.47612L20.295 6.88929C20.3409 6.86175 20.3808 6.82543 20.4126 6.78244C20.4445 6.73944 20.4675 6.6906 20.4804 6.6387C20.4934 6.5868 20.496 6.53286 20.4881 6.47996C20.4802 6.42706 20.4619 6.37622 20.4344 6.33037C20.4069 6.28452 20.3705 6.24455 20.3275 6.21273C20.2845 6.18091 20.2357 6.15785 20.1838 6.14491C20.1319 6.13197 20.0779 6.12938 20.025 6.13729C19.9721 6.14519 19.9213 6.16344 19.8755 6.19098L15.5784 8.77647C15.4969 8.81927 15.4326 8.88872 15.3962 8.9732C15.3597 9.05769 15.3534 9.15211 15.3781 9.24071C15.4029 9.32932 15.4573 9.40676 15.5323 9.46009C15.6073 9.51342 15.6983 9.53942 15.7901 9.53377H15.7968Z" fill="#1A202C"/>
<path d="M20.3672 16.7111L15.9012 14.4326C15.8535 14.4083 15.8015 14.3936 15.7481 14.3894C15.6947 14.3852 15.6411 14.3916 15.5901 14.4082C15.5392 14.4247 15.4921 14.4511 15.4514 14.4859C15.4107 14.5207 15.3773 14.5631 15.353 14.6108C15.3287 14.6585 15.314 14.7105 15.3098 14.7639C15.3057 14.8173 15.312 14.8709 15.3286 14.9219C15.3451 14.9728 15.3715 15.0199 15.4063 15.0606C15.4411 15.1013 15.4835 15.1347 15.5312 15.159L19.9959 17.4376C20.0922 17.4868 20.2042 17.4958 20.3071 17.4625C20.41 17.4292 20.4955 17.3563 20.5448 17.26C20.594 17.1637 20.6029 17.0517 20.5696 16.9488C20.5363 16.8459 20.4635 16.7604 20.3672 16.7111Z" fill="#1A202C"/>
<path d="M20.7996 11.5615H16.5038C16.3956 11.5615 16.2918 11.6045 16.2152 11.6811C16.1387 11.7576 16.0957 11.8614 16.0957 11.9697C16.0957 12.0779 16.1387 12.1817 16.2152 12.2582C16.2918 12.3348 16.3956 12.3778 16.5038 12.3778H20.7996C20.9078 12.3778 21.0116 12.3348 21.0882 12.2582C21.1647 12.1817 21.2077 12.0779 21.2077 11.9697C21.2077 11.8614 21.1647 11.7576 21.0882 11.6811C21.0116 11.6045 20.9078 11.5615 20.7996 11.5615Z" fill="#1A202C"/>
</g>
<defs>
<clipPath id="clip0_80_8942">
<rect width="21.2067" height="24" fill="white"/>
</clipPath>
</defs>
</svg>
