<svg width="21" height="24" viewBox="0 0 21 24" fill="none" xmlns="http://www.w3.org/2000/svg">
<g clip-path="url(#clip0_80_8984)">
<path d="M20.3836 22.2701L20.0245 16.3342C20.0238 15.7135 19.8254 15.1092 19.4579 14.609C19.0904 14.1088 18.5731 13.7388 17.981 13.5526L13.078 11.9773C13.0524 11.9645 13.0254 11.9549 12.9975 11.9488H12.9863L12.8972 11.9203L12.7325 10.0007C13.0445 9.61682 13.5288 8.89603 13.5994 8.30529L13.6477 7.92261C13.6831 7.63977 13.7757 7.36712 13.9201 7.12134C14.1765 6.68102 14.3115 6.18062 14.3115 5.67111V3.83199C14.3115 2.81607 13.9079 1.84177 13.1896 1.12341C12.4712 0.405041 11.4968 0.00146484 10.4809 0.00146484C9.465 0.00146484 8.49072 0.405041 7.77235 1.12341C7.05398 1.84177 6.65042 2.81607 6.65042 3.83199V5.75656C6.65092 6.20329 6.75521 6.64379 6.95508 7.04331L7.01204 7.1585C7.11946 7.37203 7.18941 7.60243 7.21885 7.83965L7.2783 8.30529C7.34765 8.84402 7.78607 9.52889 8.09321 9.92644C8.08913 9.94188 8.08619 9.95761 8.0845 9.9735L7.91736 11.9203L2.83347 13.5539C2.24266 13.7391 1.72615 14.1076 1.35857 14.6058C0.990998 15.1041 0.791453 15.7064 0.788811 16.3255L-0.00378748 23.568C-0.0142217 23.6675 0.0150341 23.767 0.0776675 23.8449C0.140301 23.9229 0.231199 23.9729 0.330559 23.9841H0.371437C0.464251 23.9845 0.553876 23.9502 0.622636 23.8878C0.691396 23.8255 0.734312 23.7397 0.742974 23.6473L1.53805 16.385C1.53805 16.3714 1.53805 16.3577 1.53805 16.3441C1.53674 15.8814 1.68357 15.4305 1.957 15.0572C2.23042 14.6839 2.61609 14.408 3.05764 14.2697L8.38299 12.5582C8.45412 12.536 8.51694 12.493 8.56332 12.4347C8.60969 12.3764 8.6375 12.3055 8.64308 12.2312L8.78924 10.5419L9.28462 10.9457C9.59513 11.1973 9.98099 11.3376 10.3806 11.3441C10.7802 11.3506 11.1705 11.223 11.489 10.9816L12.0166 10.5828L12.1578 12.2312C12.1634 12.3055 12.1912 12.3764 12.2376 12.4347C12.2839 12.493 12.3467 12.536 12.4179 12.5582L12.4674 12.5743L11.0581 19.1257H6.43865C5.79258 19.1257 5.17291 19.3823 4.71606 19.8392C4.25922 20.296 4.00256 20.9156 4.00256 21.5617C4.00256 22.2078 4.25922 22.8274 4.71606 23.2843C5.17291 23.7411 5.79258 23.9978 6.43865 23.9978H16.7314C16.7649 23.9976 16.7982 23.993 16.8305 23.9841H18.7588C18.979 23.9833 19.1967 23.9376 19.3986 23.8498C19.6006 23.7619 19.7825 23.6338 19.9332 23.4733C20.0839 23.3127 20.2003 23.1231 20.2752 22.916C20.3501 22.7089 20.3819 22.4887 20.3688 22.2689L20.3836 22.2701ZM11.0445 10.3809C10.8601 10.5206 10.6342 10.5944 10.403 10.5906C10.1717 10.5867 9.94846 10.5055 9.76881 10.3599L8.75205 9.53756C8.42633 9.13506 8.0734 8.53813 8.03129 8.20746L7.97184 7.7418C7.93148 7.42046 7.83639 7.1084 7.69071 6.81915L7.63375 6.70398C7.48635 6.40902 7.4096 6.08381 7.40958 5.75408V3.82953C7.40137 3.42027 7.47488 3.01347 7.62583 2.63297C7.77677 2.25247 8.00212 1.90591 8.28865 1.61357C8.57519 1.32123 8.91714 1.08899 9.29454 0.930441C9.67193 0.771897 10.0771 0.690234 10.4865 0.690234C10.8958 0.690234 11.3011 0.771897 11.6785 0.930441C12.0559 1.08899 12.3978 1.32123 12.6844 1.61357C12.9709 1.90591 13.1963 2.25247 13.3472 2.63297C13.4981 3.01347 13.5717 3.42027 13.5635 3.82953V5.66863C13.5632 6.04466 13.4632 6.4139 13.2737 6.73866C13.078 7.07201 12.9516 7.44143 12.9021 7.82478L12.8538 8.20746C12.808 8.56909 12.4278 9.19823 12.0934 9.58586L11.0445 10.3809ZM10.1775 23.2448H9.84561L9.50873 19.8787H10.9008L10.1775 23.2448ZM8.75084 19.8787L9.08893 23.2448H7.37614L7.89753 19.8787H8.75084ZM4.76051 21.5617C4.76084 21.1154 4.93827 20.6875 5.25384 20.372C5.5694 20.0564 5.99728 19.879 6.44355 19.8787H7.13589L6.61323 23.2448H6.44355C5.99835 23.2431 5.57192 23.0653 5.25747 22.7501C4.94301 22.435 4.76612 22.0082 4.76547 21.5629L4.76051 21.5617ZM10.9528 23.2448L13.1981 12.8058L15.2638 13.4697L16.3215 23.2448H10.9528ZM19.3978 22.9587C19.3173 23.0448 19.2198 23.1133 19.1116 23.16C19.0033 23.2067 18.8865 23.2305 18.7686 23.2299H17.0782L16.7376 20.0793H17.3754C17.4752 20.0793 17.571 20.0396 17.6416 19.969C17.7122 19.8984 17.7519 19.8026 17.7519 19.7028C17.7519 19.6029 17.7122 19.5072 17.6416 19.4366C17.571 19.366 17.4752 19.3263 17.3754 19.3263H16.6559L16.049 13.7223L17.7519 14.2697C18.1932 14.4083 18.5787 14.6844 18.8521 15.0575C19.1255 15.4307 19.2724 15.8815 19.2715 16.3441V16.3676L19.6307 22.3122C19.6389 22.4304 19.6224 22.549 19.5823 22.6605C19.5422 22.7721 19.4794 22.874 19.3978 22.9599V22.9587Z" fill="#2D3748"/>
<path d="M10.6925 7.29441H10.5167V5.66212C10.5167 5.56227 10.477 5.46652 10.4064 5.39591C10.3358 5.32531 10.24 5.28564 10.1402 5.28564C10.0403 5.28564 9.94458 5.32531 9.87397 5.39591C9.80337 5.46652 9.76367 5.56227 9.76367 5.66212V7.67213C9.76367 7.77067 9.80284 7.86517 9.87252 7.93485C9.9422 8.00453 10.0367 8.04367 10.1352 8.04367H10.6876C10.7876 8.04367 10.8835 8.00394 10.9542 7.93322C11.025 7.8625 11.0647 7.76658 11.0647 7.66657C11.0647 7.56655 11.025 7.47063 10.9542 7.39991C10.8835 7.32918 10.7876 7.28945 10.6876 7.28945L10.6925 7.29441Z" fill="#2D3748"/>
</g>
<defs>
<clipPath id="clip0_80_8984">
<rect width="20.3862" height="24" fill="white"/>
</clipPath>
</defs>
</svg>
