<svg width="24" height="24" viewBox="0 0 24 24" fill="none" xmlns="http://www.w3.org/2000/svg">
<g clip-path="url(#clip0_80_9044)">
<path d="M22.7069 18.6271L17.1159 12.0806L17.4313 11.9513C17.4434 11.9461 17.4565 11.9434 17.4698 11.9434C17.483 11.9434 17.4962 11.9461 17.5083 11.9513L19.1455 12.6923C19.4777 12.8342 19.8522 12.8404 20.1888 12.7095C20.5254 12.5786 20.7974 12.321 20.9464 11.992C21.0954 11.663 21.1096 11.2887 20.9859 10.9494C20.8623 10.61 20.6106 10.3326 20.2849 10.1766L18.1509 9.2092C17.9668 9.09152 17.755 9.02408 17.5368 9.01359C17.0626 8.95194 13.6162 8.51328 12.8598 8.56189L12.6227 8.53937H12.5848C12.447 8.5009 12.3234 8.42302 12.2292 8.3153L6.20544 0.145768C6.17785 0.105432 6.1424 0.0710726 6.10124 0.0447256C6.06008 0.0183786 6.01405 0.000591902 5.96587 -0.00757577C5.91769 -0.0157434 5.86835 -0.014125 5.82081 -0.00281452C5.77326 0.00849599 5.72848 0.0292668 5.68914 0.0582568C5.6498 0.0872469 5.61669 0.123854 5.5918 0.165913C5.56692 0.207973 5.55075 0.254623 5.54428 0.303063C5.5378 0.351503 5.54115 0.400751 5.55412 0.447869C5.56709 0.494986 5.58944 0.539003 5.61979 0.577305L11.653 8.75751L11.6684 8.77885C11.8165 8.95059 12.0019 9.08614 12.2105 9.17512C12.4191 9.2641 12.6453 9.30414 12.8717 9.29218H12.9049C13.3862 9.25425 15.9422 9.54589 17.4573 9.74151H17.4917C17.5912 9.74569 17.6877 9.77729 17.7703 9.8328C17.787 9.84451 17.8049 9.85445 17.8237 9.86243L19.9861 10.8417C20.13 10.9212 20.2386 11.0521 20.2902 11.2083C20.3419 11.3644 20.3327 11.5342 20.2646 11.6839C20.1965 11.8336 20.0745 11.952 19.9229 12.0157C19.7712 12.0793 19.6012 12.0834 19.4467 12.0272L17.8094 11.2863C17.7069 11.24 17.596 11.2151 17.4835 11.2131C17.371 11.2111 17.2592 11.2319 17.155 11.2744L16.3762 11.5957L16.3595 11.6052C16.3433 11.6122 16.3278 11.621 16.3133 11.6312C16.3044 11.6362 16.296 11.6422 16.2884 11.649L16.2683 11.6633C15.6098 12.2358 14.8753 12.7146 14.0857 13.0859C12.5101 13.8067 11.2108 13.7439 10.2232 12.8974C10.1869 12.8663 10.1449 12.8426 10.0994 12.8277C10.054 12.8128 10.0061 12.807 9.95843 12.8106C9.91076 12.8143 9.86429 12.8273 9.82164 12.8489C9.77899 12.8705 9.74103 12.9002 9.70989 12.9365C9.647 13.0098 9.61578 13.105 9.62312 13.2013C9.63045 13.2976 9.67573 13.387 9.74899 13.4499C10.3967 14.013 11.2287 14.3184 12.0869 14.3082C12.7982 14.3082 13.5806 14.1185 14.4034 13.7391C15.1431 13.3895 15.8377 12.9516 16.4722 12.435L22.1533 19.0835C22.2652 19.2151 22.3206 19.3855 22.3074 19.5577C22.2973 19.6865 22.2492 19.8094 22.1692 19.9108C22.0893 20.0123 21.9811 20.0877 21.8583 20.1277C21.7355 20.1677 21.6036 20.1703 21.4792 20.1354C21.3549 20.1004 21.2437 20.0293 21.1598 19.9312L17.129 15.2163C17.0338 15.1048 16.8983 15.0357 16.7523 15.0242C16.6062 15.0126 16.4615 15.0596 16.3501 15.1547C16.2386 15.2498 16.1695 15.3853 16.1579 15.5313C16.1464 15.6774 16.1933 15.8221 16.2884 15.9336L21.1041 21.5696C21.16 21.6348 21.2024 21.7103 21.2291 21.7919C21.2557 21.8735 21.2659 21.9596 21.2592 22.0452C21.2525 22.1308 21.2289 22.2142 21.1899 22.2907C21.1509 22.3671 21.0971 22.4351 21.0318 22.4908C20.9669 22.5466 20.8915 22.589 20.8101 22.6154C20.7287 22.6419 20.6429 22.6519 20.5575 22.6449C20.4721 22.6385 20.3887 22.6153 20.3122 22.5766C20.2357 22.538 20.1676 22.4846 20.1118 22.4196L15.2961 16.7836C15.249 16.7284 15.1915 16.683 15.1269 16.65C15.0623 16.6171 14.9918 16.5972 14.9194 16.5914C14.8471 16.5857 14.7744 16.5943 14.7053 16.6167C14.6363 16.6391 14.5724 16.6748 14.5172 16.7219C14.462 16.769 14.4166 16.8266 14.3836 16.8912C14.3507 16.9559 14.3308 17.0265 14.3252 17.0988C14.3196 17.1712 14.3283 17.244 14.3509 17.313C14.3735 17.3819 14.4094 17.4458 14.4567 17.5008L18.4544 22.1801C18.567 22.3119 18.6226 22.483 18.609 22.6557C18.5955 22.8285 18.5138 22.9887 18.3821 23.1013C18.2503 23.2139 18.0793 23.2695 17.9065 23.2559C17.7338 23.2424 17.5735 23.1607 17.4609 23.029L13.4645 18.3639C13.369 18.253 13.2336 18.1843 13.0877 18.1727C12.9418 18.1612 12.7973 18.2077 12.6856 18.3023L12.5955 18.3793C12.5403 18.4264 12.4949 18.4839 12.4619 18.5486C12.4289 18.6132 12.409 18.6837 12.4033 18.756C12.3976 18.8283 12.4062 18.9011 12.4286 18.9701C12.451 19.0391 12.4867 19.103 12.5338 19.1582L15.142 22.205C15.231 22.3067 15.2795 22.4376 15.2782 22.5727C15.2769 22.7079 15.2259 22.8378 15.1349 22.9377C15.0836 22.9922 15.0211 23.035 14.9517 23.0633C14.8824 23.0915 14.8078 23.1045 14.733 23.1013C14.6584 23.0991 14.5852 23.0814 14.5178 23.0494C14.4505 23.0173 14.3905 22.9716 14.3418 22.9152L8.16988 15.6917C7.73597 15.1843 7.38741 14.1719 7.58776 13.6289C7.67703 13.3911 7.70101 13.1338 7.65723 12.8836C7.61345 12.6334 7.50352 12.3996 7.33882 12.2062L0.652379 3.75811C0.592638 3.68249 0.505312 3.63369 0.409599 3.62246C0.313885 3.61124 0.217633 3.6385 0.142014 3.69824C0.0663948 3.75798 0.0176111 3.8453 0.00638334 3.94102C-0.00484438 4.03673 0.0223886 4.13298 0.0821291 4.2086L6.77213 12.6627L6.78159 12.6733C6.86248 12.7684 6.91665 12.8833 6.93853 13.0062C6.9604 13.1291 6.94919 13.2556 6.90608 13.3728C6.5931 14.2157 7.03175 15.4771 7.6174 16.1612L13.7905 23.3847C13.9051 23.5184 14.0464 23.6267 14.2053 23.7026C14.3642 23.7785 14.5372 23.8204 14.7132 23.8255C14.8893 23.8306 15.0644 23.7989 15.2275 23.7324C15.3905 23.6659 15.5379 23.566 15.6601 23.4392C15.7861 23.3085 15.8822 23.1519 15.9415 22.9804C16.0009 22.8088 16.0222 22.6263 16.0039 22.4457L16.9155 23.5127C17.0334 23.65 17.1772 23.7625 17.3388 23.8439C17.5004 23.9253 17.6765 23.9739 17.8569 23.9869H17.9683C18.3151 23.987 18.649 23.8561 18.9034 23.6205C19.1577 23.3848 19.3137 23.0618 19.34 22.716C19.34 22.6887 19.34 22.6615 19.34 22.6354L19.5617 22.895C19.6779 23.038 19.8215 23.1563 19.9841 23.2429C20.1467 23.3296 20.325 23.3828 20.5085 23.3995C20.6919 23.4162 20.8769 23.396 21.0524 23.3401C21.228 23.2842 21.3906 23.1938 21.5307 23.0741C21.6708 22.9545 21.7855 22.808 21.8681 22.6433C21.9507 22.4786 21.9995 22.2991 22.0117 22.1152C22.0238 21.9314 21.9991 21.747 21.9389 21.5729C21.8788 21.3987 21.7843 21.2384 21.6613 21.1013L21.4704 20.8772L21.5498 20.8867C21.8219 20.9079 22.0941 20.8479 22.3322 20.7144C22.5702 20.581 22.7634 20.38 22.8873 20.1369C23.0112 19.8937 23.0603 19.6193 23.0284 19.3483C22.9965 19.0773 22.8851 18.8218 22.7081 18.6141L22.7069 18.6271Z" fill="#2D3748"/>
<path d="M5.27109 4.59882C5.36488 4.59882 5.45658 4.571 5.53456 4.51889C5.61255 4.46678 5.67332 4.39273 5.70921 4.30608C5.7451 4.21943 5.75451 4.12407 5.73621 4.03208C5.71792 3.94009 5.67275 3.85559 5.60643 3.78927C5.54011 3.72295 5.45561 3.6778 5.36362 3.65951C5.27163 3.64121 5.17626 3.65059 5.08961 3.68648C5.00296 3.72237 4.92892 3.78316 4.87682 3.86114C4.82471 3.93913 4.79688 4.03081 4.79688 4.1246C4.79688 4.25037 4.84684 4.37098 4.93578 4.45992C5.02471 4.54885 5.14532 4.59882 5.27109 4.59882Z" fill="#2D3748"/>
<path d="M1.77304 2.10174C1.86683 2.10174 1.95853 2.07394 2.03652 2.02183C2.1145 1.96972 2.17527 1.89566 2.21116 1.80901C2.24706 1.72235 2.25647 1.62701 2.23817 1.53502C2.21987 1.44304 2.1747 1.35854 2.10838 1.29222C2.04206 1.22589 1.95756 1.18073 1.86558 1.16243C1.77359 1.14413 1.67825 1.15353 1.59159 1.18942C1.50494 1.22531 1.43088 1.28608 1.37877 1.36407C1.32666 1.44205 1.29883 1.53374 1.29883 1.62753C1.29883 1.7533 1.3488 1.87392 1.43773 1.96286C1.52666 2.05179 1.64727 2.10174 1.77304 2.10174Z" fill="#2D3748"/>
<path d="M7.71405 5.50694C7.71405 5.41315 7.68625 5.32146 7.63414 5.24348C7.58203 5.16549 7.50797 5.10471 7.42132 5.06882C7.33466 5.03292 7.23932 5.02353 7.14733 5.04183C7.05534 5.06012 6.97084 5.10529 6.90452 5.17161C6.8382 5.23793 6.79304 5.32243 6.77474 5.41442C6.75644 5.50641 6.76582 5.60175 6.80172 5.6884C6.83761 5.77505 6.89838 5.84912 6.97636 5.90122C7.05435 5.95333 7.14605 5.98115 7.23984 5.98115C7.36561 5.98115 7.48622 5.93118 7.57515 5.84225C7.66408 5.75332 7.71405 5.63271 7.71405 5.50694Z" fill="#2D3748"/>
<path d="M5.27108 5.97852C5.17729 5.97852 5.08562 6.00632 5.00763 6.05843C4.92965 6.11054 4.86888 6.1846 4.83299 6.27125C4.79709 6.3579 4.78768 6.45325 4.80598 6.54523C4.82428 6.63722 4.86945 6.72172 4.93577 6.78804C5.00209 6.85436 5.08659 6.89953 5.17857 6.91783C5.27056 6.93613 5.3659 6.92673 5.45256 6.89084C5.53921 6.85495 5.61327 6.79418 5.66538 6.71619C5.71749 6.63821 5.74529 6.54652 5.74529 6.45273C5.74529 6.32696 5.69535 6.20633 5.60642 6.1174C5.51749 6.02847 5.39685 5.97852 5.27108 5.97852Z" fill="#2D3748"/>
<path d="M8.82968 6.92334C8.73589 6.92334 8.64422 6.95115 8.56623 7.00325C8.48825 7.05536 8.42745 7.12943 8.39156 7.21608C8.35567 7.30273 8.34629 7.39809 8.36458 7.49008C8.38288 7.58206 8.42805 7.66655 8.49437 7.73287C8.56069 7.79919 8.64519 7.84436 8.73718 7.86266C8.82917 7.88095 8.92451 7.87157 9.01116 7.83568C9.09781 7.79979 9.17187 7.739 9.22398 7.66102C9.27609 7.58303 9.3039 7.49135 9.3039 7.39756C9.3039 7.27179 9.25396 7.15117 9.16502 7.06224C9.07609 6.97331 8.95545 6.92334 8.82968 6.92334Z" fill="#2D3748"/>
<path d="M6.29688 8.84043C6.29688 8.93422 6.32468 9.0259 6.37679 9.10389C6.4289 9.18187 6.50296 9.24264 6.58961 9.27853C6.67626 9.31443 6.7716 9.32382 6.86359 9.30552C6.95558 9.28723 7.04008 9.24206 7.1064 9.17574C7.17272 9.10942 7.21789 9.02492 7.23618 8.93293C7.25448 8.84094 7.2451 8.7456 7.20921 8.65895C7.17332 8.5723 7.11252 8.49823 7.03453 8.44612C6.95655 8.39402 6.86488 8.36621 6.77109 8.36621C6.64532 8.36621 6.52471 8.41617 6.43578 8.5051C6.34684 8.59403 6.29688 8.71466 6.29688 8.84043Z" fill="#2D3748"/>
<path d="M8.6582 9.59677C8.6582 9.69056 8.68601 9.78225 8.73812 9.86023C8.79022 9.93822 8.86429 9.99899 8.95094 10.0349C9.03759 10.0708 9.13293 10.0802 9.22492 10.0619C9.31691 10.0436 9.40141 9.99841 9.46773 9.93209C9.53405 9.86577 9.57922 9.78127 9.59752 9.68928C9.61581 9.59729 9.60643 9.50195 9.57054 9.4153C9.53465 9.32864 9.47388 9.25458 9.39589 9.20247C9.31791 9.15036 9.22621 9.12256 9.13242 9.12256C9.00665 9.12256 8.88604 9.17251 8.7971 9.26145C8.70817 9.35038 8.6582 9.471 8.6582 9.59677Z" fill="#2D3748"/>
<path d="M3.12851 4.73017C3.2223 4.73017 3.31397 4.70236 3.39196 4.65025C3.46994 4.59815 3.53074 4.52408 3.56663 4.43743C3.60253 4.35078 3.61191 4.25542 3.59361 4.16343C3.57531 4.07144 3.53015 3.98696 3.46383 3.92064C3.39751 3.85432 3.313 3.80915 3.22102 3.79085C3.12903 3.77256 3.03369 3.78194 2.94703 3.81783C2.86038 3.85372 2.78632 3.91451 2.73421 3.99249C2.6821 4.07047 2.6543 4.16216 2.6543 4.25595C2.6543 4.38172 2.70424 4.50233 2.79317 4.59127C2.8821 4.6802 3.00274 4.73017 3.12851 4.73017Z" fill="#2D3748"/>
<path d="M4.32773 2.10174C4.42152 2.10174 4.51322 2.07394 4.59121 2.02183C4.66919 1.96972 4.72996 1.89566 4.76585 1.80901C4.80175 1.72235 4.81113 1.62701 4.79283 1.53502C4.77453 1.44304 4.72936 1.35854 4.66304 1.29222C4.59672 1.22589 4.51225 1.18073 4.42026 1.16243C4.32828 1.14413 4.2329 1.15353 4.14625 1.18942C4.0596 1.22531 3.98554 1.28608 3.93343 1.36407C3.88132 1.44205 3.85352 1.53374 3.85352 1.62753C3.85352 1.7533 3.90348 1.87392 3.99242 1.96286C4.08135 2.05179 4.20196 2.10174 4.32773 2.10174Z" fill="#2D3748"/>
</g>
<defs>
<clipPath id="clip0_80_9044">
<rect width="23.0373" height="24" fill="white"/>
</clipPath>
</defs>
</svg>
